<?xml version="1.0" encoding="utf-8"?>
<!-- Generator: Adobe Illustrator 16.0.4, SVG Export Plug-In . SVG Version: 6.00 Build 0)  -->
<!DOCTYPE svg PUBLIC "-//W3C//DTD SVG 1.1//EN" "http://www.w3.org/Graphics/SVG/1.1/DTD/svg11.dtd">
<svg version="1.1" id="Layer_1" xmlns="http://www.w3.org/2000/svg" xmlns:xlink="http://www.w3.org/1999/xlink" x="0px" y="0px"
	 width="50px" height="50px" viewBox="0 0 50 50" enable-background="new 0 0 50 50" xml:space="preserve">
<path fill="#FFFFFF" d="M44.05,25c0.174-0.231,0.343-0.462,0.506-0.693c3.178-4.528,3.943-8.721,2.157-11.807
	c-1.543-2.664-4.853-4.131-9.318-4.131c-0.929,0-1.897,0.063-2.896,0.183c-0.113-0.266-0.229-0.529-0.349-0.786
	C31.812,2.758,28.563,0,25,0c-3.563,0-6.812,2.758-9.15,7.766c-0.12,0.257-0.235,0.52-0.349,0.786
	c-0.998-0.12-1.966-0.183-2.895-0.183c-4.466,0-7.776,1.467-9.318,4.131c-1.787,3.086-1.021,7.279,2.157,11.807
	C5.607,24.539,5.777,24.77,5.95,25c-0.173,0.23-0.343,0.461-0.505,0.692C2.268,30.221,1.501,34.414,3.288,37.5
	c1.542,2.664,4.852,4.131,9.318,4.131c0.928,0,1.896-0.062,2.895-0.183c0.114,0.266,0.229,0.528,0.349,0.785
	C18.188,47.242,21.437,50,25,50c3.563,0,6.812-2.758,9.15-7.767c0.119-0.257,0.235-0.52,0.349-0.785
	c0.998,0.12,1.967,0.183,2.895,0.183c4.467,0,7.776-1.467,9.319-4.131c1.786-3.086,1.021-7.279-2.158-11.807
	C44.393,25.461,44.223,25.231,44.05,25z M37.395,11.494c3.3,0,5.645,0.913,6.604,2.569c1.126,1.945,0.394,5.027-2.011,8.453
	c-0.003,0.004-0.007,0.008-0.01,0.012c-1.441-1.556-3.109-3.069-4.954-4.5c-0.319-2.281-0.796-4.452-1.417-6.452
	C36.219,11.522,36.816,11.494,37.395,11.494z M29.701,33.119c-1.558,0.896-3.134,1.691-4.701,2.379
	c-1.567-0.688-3.144-1.482-4.701-2.379c-1.547-0.891-3.015-1.848-4.388-2.851C15.724,28.564,15.625,26.8,15.625,25
	c0-1.8,0.099-3.565,0.287-5.269c1.373-1.003,2.84-1.959,4.387-2.85c1.557-0.896,3.134-1.692,4.701-2.379
	c1.567,0.687,3.144,1.482,4.701,2.379c1.546,0.89,3.015,1.847,4.388,2.85c0.188,1.704,0.286,3.468,0.286,5.269
	c0,1.8-0.099,3.564-0.286,5.269C32.716,31.271,31.247,32.229,29.701,33.119z M33.402,34.527c-0.259,1.195-0.569,2.34-0.926,3.425
	c-1.116-0.234-2.266-0.542-3.435-0.917c0.745-0.383,1.488-0.785,2.226-1.21C31.996,35.406,32.707,34.973,33.402,34.527z
	 M20.958,37.035c-1.169,0.375-2.318,0.683-3.435,0.917c-0.356-1.085-0.667-2.229-0.926-3.425c0.695,0.445,1.407,0.879,2.135,1.298
	C19.47,36.25,20.213,36.652,20.958,37.035z M12.564,27.559c-0.928-0.837-1.783-1.692-2.561-2.559
	c0.777-0.867,1.633-1.722,2.561-2.559C12.523,23.286,12.5,24.14,12.5,25S12.523,26.714,12.564,27.559z M16.598,15.473
	c0.259-1.196,0.569-2.34,0.926-3.425c1.117,0.234,2.266,0.542,3.435,0.917c-0.745,0.382-1.488,0.785-2.226,1.209
	C18.004,14.594,17.293,15.027,16.598,15.473z M29.042,12.965c1.169-0.375,2.318-0.683,3.435-0.917
	c0.356,1.085,0.667,2.229,0.926,3.425c-0.695-0.445-1.406-0.879-2.135-1.298C30.53,13.75,29.787,13.348,29.042,12.965z
	 M37.437,22.442c0.928,0.836,1.782,1.692,2.561,2.559c-0.778,0.866-1.633,1.722-2.561,2.558C37.478,26.714,37.5,25.86,37.5,25
	S37.478,23.287,37.437,22.442z M18.682,9.088C20.45,5.298,22.753,3.125,25,3.125c2.247,0,4.55,2.173,6.318,5.963
	c0.002,0.006,0.005,0.012,0.008,0.018c-2.048,0.463-4.178,1.14-6.326,2.008c-2.148-0.868-4.278-1.544-6.326-2.008
	C18.677,9.1,18.679,9.094,18.682,9.088z M8.013,22.516c-2.404-3.426-3.137-6.507-2.011-8.453c0.959-1.657,3.305-2.569,6.604-2.569
	c0.578,0,1.175,0.028,1.787,0.082c-0.622,2-1.097,4.17-1.417,6.451c-1.846,1.431-3.514,2.945-4.955,4.5
	C8.019,22.523,8.015,22.52,8.013,22.516z M12.606,38.506c-3.3,0-5.645-0.912-6.604-2.568c-1.127-1.946-0.394-5.027,2.011-8.453
	c0.002-0.004,0.005-0.008,0.008-0.012c1.441,1.556,3.11,3.069,4.955,4.5c0.319,2.281,0.795,4.452,1.417,6.452
	C13.782,38.479,13.185,38.506,12.606,38.506z M31.318,40.912c-1.769,3.789-4.071,5.963-6.318,5.963c-2.247,0-4.55-2.174-6.318-5.963
	c-0.003-0.006-0.005-0.012-0.008-0.018c2.048-0.464,4.178-1.141,6.326-2.009c2.148,0.868,4.278,1.545,6.326,2.008
	C31.323,40.899,31.32,40.906,31.318,40.912z M43.998,35.938c-0.959,1.656-3.304,2.568-6.604,2.568c-0.578,0-1.175-0.027-1.786-0.081
	c0.621-2,1.098-4.171,1.417-6.452c1.845-1.431,3.513-2.944,4.954-4.5c0.003,0.004,0.006,0.008,0.009,0.012
	C44.392,30.911,45.125,33.992,43.998,35.938z"/>
</svg>
