<?xml version="1.0" encoding="utf-8"?>
<!-- Generator: Adobe Illustrator 16.0.4, SVG Export Plug-In . SVG Version: 6.00 Build 0)  -->
<!DOCTYPE svg PUBLIC "-//W3C//DTD SVG 1.1//EN" "http://www.w3.org/Graphics/SVG/1.1/DTD/svg11.dtd">
<svg version="1.1" id="Layer_1" xmlns="http://www.w3.org/2000/svg" xmlns:xlink="http://www.w3.org/1999/xlink" x="0px" y="0px"
	 width="50px" height="50px" viewBox="0 0 50 50" enable-background="new 0 0 50 50" xml:space="preserve">
<g>
	<path fill="#FFFFFF" d="M38.516,4.907L37.406,3h-2.208H14.637h-2.208l-1.109,1.908L1.038,22.596l-1.121,1.928l1.121,1.929
		l10.281,17.664L12.429,46h2.208h20.562h2.208l1.109-1.885l10.281-17.676l1.121-1.922l-1.121-1.919L38.516,4.907z M35.198,42H14.637
		L4.355,24.5L14.637,7h20.562l10.281,17.5L35.198,42z"/>
	<path fill="#FFFFFF" d="M24.917,13.097c-6.3,0-11.426,5.126-11.426,11.426c0,6.3,5.125,11.426,11.426,11.426
		s11.426-5.126,11.426-11.426C36.344,18.223,31.218,13.097,24.917,13.097z M24.917,32.112c-4.185,0-7.589-3.404-7.589-7.589
		s3.404-7.589,7.589-7.589c4.184,0,7.589,3.405,7.589,7.589S29.102,32.112,24.917,32.112z"/>
</g>
</svg>
