<?xml version="1.0" encoding="utf-8"?>
<!-- Generator: Adobe Illustrator 16.0.4, SVG Export Plug-In . SVG Version: 6.00 Build 0)  -->
<!DOCTYPE svg PUBLIC "-//W3C//DTD SVG 1.1//EN" "http://www.w3.org/Graphics/SVG/1.1/DTD/svg11.dtd">
<svg version="1.1" id="Layer_1" xmlns="http://www.w3.org/2000/svg" xmlns:xlink="http://www.w3.org/1999/xlink" x="0px" y="0px"
	 width="50px" height="50px" viewBox="0 0 50 50" enable-background="new 0 0 50 50" xml:space="preserve">
<path fill="#FFFFFF" d="M14.062,37.5h21.875c0.863,0,1.562-0.699,1.562-1.562V14.062c0-0.863-0.699-1.562-1.562-1.562H14.062
	c-0.863,0-1.562,0.7-1.562,1.562v21.875C12.5,36.801,13.2,37.5,14.062,37.5z M14.062,14.062h21.875v21.875H14.062V14.062z
	 M49.219,20.312c0.432,0,0.781-0.35,0.781-0.781s-0.35-0.781-0.781-0.781H43.75v-3.906h5.469c0.432,0,0.781-0.35,0.781-0.781
	s-0.35-0.781-0.781-0.781H43.75V9.375c0-1.726-1.399-3.125-3.125-3.125h-3.906V0.781C36.719,0.35,36.369,0,35.938,0
	s-0.781,0.35-0.781,0.781V6.25H31.25V0.781C31.25,0.35,30.9,0,30.469,0s-0.781,0.35-0.781,0.781V6.25h-3.906V0.781
	C25.781,0.35,25.432,0,25,0s-0.781,0.35-0.781,0.781V6.25h-3.906V0.781C20.312,0.35,19.963,0,19.531,0S18.75,0.35,18.75,0.781V6.25
	h-3.906V0.781C14.844,0.35,14.494,0,14.062,0s-0.781,0.35-0.781,0.781V6.25H9.375c-1.726,0-3.125,1.399-3.125,3.125v3.906H0.781
	C0.35,13.281,0,13.631,0,14.062s0.35,0.781,0.781,0.781H6.25v3.906H0.781C0.35,18.75,0,19.1,0,19.531s0.35,0.781,0.781,0.781H6.25
	v3.906H0.781C0.35,24.219,0,24.568,0,25s0.35,0.781,0.781,0.781H6.25v3.906H0.781C0.35,29.688,0,30.037,0,30.469
	s0.35,0.781,0.781,0.781H6.25v3.906H0.781C0.35,35.156,0,35.506,0,35.938s0.35,0.781,0.781,0.781H6.25v3.906
	c0,1.726,1.399,3.125,3.125,3.125h3.906v5.469c0,0.432,0.35,0.781,0.781,0.781s0.781-0.35,0.781-0.781V43.75h3.906v5.469
	C18.75,49.65,19.1,50,19.531,50s0.781-0.35,0.781-0.781V43.75h3.906v5.469C24.219,49.65,24.568,50,25,50s0.781-0.35,0.781-0.781
	V43.75h3.906v5.469c0,0.432,0.35,0.781,0.781,0.781s0.781-0.35,0.781-0.781V43.75h3.906v5.469c0,0.432,0.35,0.781,0.781,0.781
	s0.781-0.35,0.781-0.781V43.75h3.906c1.726,0,3.125-1.399,3.125-3.125v-3.906h5.469c0.432,0,0.781-0.35,0.781-0.781
	s-0.35-0.781-0.781-0.781H43.75V31.25h5.469C49.65,31.25,50,30.9,50,30.469s-0.35-0.781-0.781-0.781H43.75v-3.906h5.469
	C49.65,25.781,50,25.432,50,25s-0.35-0.781-0.781-0.781H43.75v-3.906H49.219z M40.625,40.625H9.375V9.375h31.25V40.625z"/>
</svg>
