<?xml version="1.0" encoding="utf-8"?>
<!-- Generator: Adobe Illustrator 16.0.4, SVG Export Plug-In . SVG Version: 6.00 Build 0)  -->
<!DOCTYPE svg PUBLIC "-//W3C//DTD SVG 1.1//EN" "http://www.w3.org/Graphics/SVG/1.1/DTD/svg11.dtd">
<svg version="1.1" id="Layer_1" xmlns="http://www.w3.org/2000/svg" xmlns:xlink="http://www.w3.org/1999/xlink" x="0px" y="0px"
	 width="128px" height="128px" viewBox="0 0 128 128" enable-background="new 0 0 128 128" xml:space="preserve">
<g>
	<path fill="#FFFFFF" d="M101.825,99.9c2.948,0,5.347-2.399,5.347-5.348c0-2.947-2.398-5.348-5.347-5.348
		c-2.949,0-5.347,2.398-5.347,5.348C96.479,97.501,98.877,99.9,101.825,99.9z M101.825,91.88c1.477,0,2.673,1.197,2.673,2.675
		c0,1.475-1.196,2.672-2.673,2.672c-1.476,0-2.673-1.197-2.673-2.672C99.152,93.077,100.35,91.88,101.825,91.88z"/>
	<path fill="#FFFFFF" d="M117.939,22H89.932c-1.75-5-6.519-8-12.132-8H13.48C6.385,14,0,19.361,0,26.457v77.086
		C0,110.639,6.385,116,13.48,116H77.8c5.613,0,10.382-3,12.132-8h28.008c5.906,0,10.062-5.016,10.062-10.92V32.92
		C128,27.014,123.846,22,117.939,22z M84,103.575c0,3.548-2.876,6.425-6.424,6.425H13.424C9.876,110,7,107.123,7,103.575v-77.15
		C7,22.876,9.876,20,13.424,20h64.152C81.124,20,84,22.876,84,26.425V103.575z M123,97.227c0,2.94-2.193,4.773-5.135,4.773H91V86h32
		V97.227z M123,84H91V44h32V84z M123,41H91V28h26.865c2.939,0,5.135,2.126,5.135,5.066V41z"/>
	<path fill="#FFFFFF" d="M107.173,33H96.479c-0.737,0-1.336,0.762-1.336,1.5s0.599,1.5,1.336,1.5h10.693
		c0.738,0,1.337-0.762,1.337-1.5S107.911,33,107.173,33z"/>
	<circle fill="#FFFFFF" cx="45.584" cy="103.723" r="3.212"/>
	<path fill="#FFFFFF" d="M74,33.212C74,31.438,72.562,30,70.788,30H19.212C17.438,30,16,31.438,16,33.212v60.575
		C16,95.562,17.438,97,19.212,97h51.576C72.562,97,74,95.562,74,93.787V33.212z M71,94H20V33h51V94z"/>
</g>
</svg>
