<?xml version="1.0" encoding="utf-8"?>
<!-- Generator: Adobe Illustrator 16.0.4, SVG Export Plug-In . SVG Version: 6.00 Build 0)  -->
<!DOCTYPE svg PUBLIC "-//W3C//DTD SVG 1.1//EN" "http://www.w3.org/Graphics/SVG/1.1/DTD/svg11.dtd">
<svg version="1.1" id="Layer_1" xmlns="http://www.w3.org/2000/svg" xmlns:xlink="http://www.w3.org/1999/xlink" x="0px" y="0px"
	 width="128px" height="128px" viewBox="0 0 128 128" enable-background="new 0 0 128 128" xml:space="preserve">
<g>
	<rect x="23" y="40" fill="#FFFFFF" width="32" height="5"/>
	<path fill="#FFFFFF" d="M38.006,92.279c-3.483,0-6.317,2.835-6.317,6.318c0,3.482,2.834,6.315,6.317,6.315s6.317-2.833,6.317-6.315
		C44.323,95.114,41.49,92.279,38.006,92.279z M38.006,101.756c-1.744,0-3.158-1.414-3.158-3.158s1.414-3.158,3.158-3.158
		c1.744,0,3.159,1.414,3.159,3.158S39.75,101.756,38.006,101.756z"/>
	<path fill="#FFFFFF" d="M121.77,23.631c-1.563-3.119-5.313-4.379-8.434-2.814L76,39.567V25.953C76,18.987,70.24,13,63.274,13
		H12.739C5.773,13,0,18.987,0,25.953v75.803C0,108.723,5.773,115,12.739,115h50.535C70.24,115,76,108.723,76,101.756v-33.92
		l48.665-24.434c3.118-1.564,4.356-5.36,2.791-8.479L121.77,23.631z M70,101.756c0,3.475-3.252,6.244-6.726,6.244H12.739
		C9.264,108,6,105.23,6,101.756V25.953C6,22.479,9.264,20,12.739,20h50.535C66.748,20,70,22.479,70,25.953v16.783l-7,3.168V29.112
		C63,27.368,61.86,26,60.116,26H15.897C14.153,26,13,27.368,13,29.112v56.852C13,87.708,14.153,89,15.897,89h44.218
		C61.86,89,63,87.708,63,85.964V74.173l7-3.169V101.756z M61.01,68.241L46.884,68.26l8.462-11.312l1.489-0.747L62.5,67.494
		L61.01,68.241z M55,50.262V50H23v5h26.083l-3.543,5H23v5h18.7l-3.544,5H23v5h11.317l-0.116-0.165L60,74.561V86H16V29h44v18.489
		L55,50.262z M65.322,66.078l-5.664-11.293l33.879-16.993l5.664,11.292L65.322,66.078z M102.023,47.668l-5.664-11.292l5.646-2.833
		l5.664,11.293L102.023,47.668z M113.316,42.004l-5.664-11.292l8.471-4.25l5.663,11.293L113.316,42.004z"/>
</g>
</svg>
