<?xml version="1.0" encoding="utf-8"?>
<!-- Generator: Adobe Illustrator 16.0.4, SVG Export Plug-In . SVG Version: 6.00 Build 0)  -->
<!DOCTYPE svg PUBLIC "-//W3C//DTD SVG 1.1//EN" "http://www.w3.org/Graphics/SVG/1.1/DTD/svg11.dtd">
<svg version="1.1" id="Layer_1" xmlns="http://www.w3.org/2000/svg" xmlns:xlink="http://www.w3.org/1999/xlink" x="0px" y="0px"
	 width="128px" height="128px" viewBox="0 0 128 128" enable-background="new 0 0 128 128" xml:space="preserve">
<g>
	<path fill="#FFFFFF" d="M124.801,92.395L112,82.795V30.792C112,21.97,104.579,16,95.757,16H31.754C22.932,16,16,21.97,16,30.792
		v52.002L3.2,92.395C1.185,93.904,0,96.275,0,98.794v4C0,107.213,3.335,112,7.753,112h112.004c4.418,0,8.242-4.787,8.242-9.205v-4
		C128,96.277,126.814,93.906,124.801,92.395z M24,30.792c0-4.4,3.354-6.792,7.754-6.792h64.002c4.4,0,8.243,2.393,8.243,6.792V84H24
		V30.792z M120,103H8v-4.205L23.754,88h80.003L120,98.795V103z"/>
	<path fill="#FFFFFF" d="M94.829,62.779c0-2.815-0.854-5.845-2.474-8.139c-0.719-1.02-1.563-2.092-2.514-2.866
		c0.732-1.884,1.111-3.976,1.111-6.042c0-9.08-7.389-16.508-16.467-16.508c-4.189,0-8.182,1.554-11.24,4.414
		c-1.419,1.326-2.576,2.86-3.438,4.552c-1.758-0.811-3.69-1.252-5.665-1.252c-7.478,0-13.561,6.08-13.561,13.558
		c0,0.849,0.081,1.691,0.237,2.519c-4.633,1.529-7.986,6.561-7.986,11.702C32.835,71.125,38.049,77,44.458,77h36.81
		C88.745,77,94.829,70.256,94.829,62.779z M44.458,56.306c0.758,0,1.491,0.111,2.184,0.314c-1.365-1.669-2.184-3.802-2.184-6.126
		c0-5.35,4.336-9.687,9.687-9.687c3.191,0,6.021,1.544,7.786,3.925c0.471-6.525,5.91-11.674,12.557-11.674
		c6.953,0,12.592,5.637,12.592,12.593c0,2.765-0.895,5.32-2.405,7.397c3.669,1.379,6.28,5.517,6.28,9.668
		c0,5.351-4.338,10.283-9.688,10.283h-36.81c-4.28,0-7.749-4.065-7.749-8.347C36.709,60.372,40.178,56.306,44.458,56.306z"/>
</g>
</svg>
