<?xml version="1.0" encoding="utf-8"?>
<!-- Generator: Adobe Illustrator 16.0.4, SVG Export Plug-In . SVG Version: 6.00 Build 0)  -->
<!DOCTYPE svg PUBLIC "-//W3C//DTD SVG 1.1//EN" "http://www.w3.org/Graphics/SVG/1.1/DTD/svg11.dtd">
<svg version="1.1" id="Layer_1" xmlns="http://www.w3.org/2000/svg" xmlns:xlink="http://www.w3.org/1999/xlink" x="0px" y="0px"
	 width="128px" height="128px" viewBox="0 0 128 128" enable-background="new 0 0 128 128" xml:space="preserve">
<path fill="#FFFFFF" d="M115.6,42.995c2.723-2.869,4.4-6.737,4.4-10.995c0-8.822-7.178-16-16-16s-16,7.178-16,16
	c0,4.259,1.68,8.128,4.402,10.998c-1.504,0.834-2.905,1.83-4.19,2.956c-2.651-4.554-6.55-8.297-11.226-10.755
	C81.275,31.528,84,26.076,84,20C84,8.972,75.027,0,64,0C52.972,0,44,8.972,44,20c0,6.076,2.724,11.527,7.014,15.198
	c-4.675,2.458-8.572,6.2-11.225,10.753c-1.284-1.126-2.685-2.122-4.189-2.956C38.321,40.126,40,36.258,40,32c0-8.822-7.178-16-16-16
	S8,23.178,8,32c0,4.259,1.68,8.128,4.403,10.998C5.015,47.095,0,54.971,0,64v16c0,4.419,3.582,8,8,8v20c0,4.419,3.582,8,8,8h16
	c4.418,0,8-3.581,8-8V94.921C41.178,95.604,42.541,96,44,96v24c0,4.419,3.582,8,8,8h24c4.418,0,8-3.581,8-8V96
	c1.459,0,2.822-0.396,4-1.079V108c0,4.419,3.582,8,8,8h16c4.418,0,8-3.581,8-8V88c4.418,0,8-3.581,8-8V64
	C128,54.972,122.986,47.093,115.6,42.995z M24,24c4.418,0,8,3.582,8,8s-3.582,8-8,8s-8-3.582-8-8S19.582,24,24,24z M32,66v42h-6V80
	c0-1.104-0.896-2-2-2s-2,0.896-2,2v28h-6V66c0-1.104-0.896-2-2-2s-2,0.896-2,2v14H8V64c0-8.836,7.163-16,16-16
	c5.126,0,9.685,2.413,12.613,6.162C36.212,56.046,36,57.999,36,60v4h-2C32.896,64,32,64.896,32,66z M104,24c4.418,0,8,3.582,8,8
	s-3.582,8-8,8s-8-3.582-8-8S99.582,24,104,24z M64,8c6.627,0,12,5.373,12,12s-5.373,12-12,12s-12-5.373-12-12S57.373,8,64,8z M84,88
	h-4V62c0-1.104-0.896-2-2-2s-2,0.896-2,2v58H66V88c0-1.104-0.896-2-2-2c-1.104,0-2,0.896-2,2v32H52V62c0-1.104-0.896-2-2-2
	s-2,0.896-2,2v26h-4V60c0-11.045,8.954-20,20-20s20,8.955,20,20V88z M120,80h-4V66c0-1.104-0.896-2-2-2s-2,0.896-2,2v42h-6V80
	c0-1.104-0.896-2-2-2s-2,0.896-2,2v28h-6V66c0-1.104-0.896-2-2-2h-2v-4c0-2.001-0.212-3.954-0.613-5.838
	C94.314,50.413,98.874,48,104,48c8.837,0,16,7.164,16,16V80z"/>
</svg>
