<?xml version="1.0" encoding="utf-8"?>
<!-- Generator: Adobe Illustrator 16.0.4, SVG Export Plug-In . SVG Version: 6.00 Build 0)  -->
<!DOCTYPE svg PUBLIC "-//W3C//DTD SVG 1.1//EN" "http://www.w3.org/Graphics/SVG/1.1/DTD/svg11.dtd">
<svg version="1.1" id="Layer_1" xmlns="http://www.w3.org/2000/svg" xmlns:xlink="http://www.w3.org/1999/xlink" x="0px" y="0px"
	 width="128px" height="128px" viewBox="0 0 128 128" enable-background="new 0 0 128 128" xml:space="preserve">
<path fill="#A7D100" d="M64,8c14.958,0,29.021,5.825,39.598,16.402C114.175,34.979,120,49.042,120,64s-5.825,29.021-16.402,39.598
	C93.021,114.175,78.958,120,64,120s-29.021-5.825-39.598-16.402C13.825,93.021,8,78.958,8,64s5.825-29.021,16.402-39.598
	C34.979,13.825,49.042,8,64,8 M64,0C28.654,0,0,28.654,0,64c0,35.346,28.654,64,64,64c35.346,0,64-28.654,64-64
	C128,28.654,99.346,0,64,0L64,0z M56,92c0.146,0,0.295-0.004,0.442-0.012c2.272-0.127,4.383-1.215,5.805-2.99l32-40
	c2.76-3.45,2.2-8.484-1.249-11.244c-3.45-2.76-8.484-2.201-11.245,1.249L55.337,72.023l-9.68-9.681
	c-3.125-3.125-8.189-3.125-11.314,0c-3.124,3.124-3.124,8.19,0,11.313l16,16C51.848,91.161,53.884,92,56,92L56,92z"/>
</svg>
