<?xml version="1.0" encoding="utf-8"?>
<!-- Generator: Adobe Illustrator 16.0.4, SVG Export Plug-In . SVG Version: 6.00 Build 0)  -->
<!DOCTYPE svg PUBLIC "-//W3C//DTD SVG 1.1//EN" "http://www.w3.org/Graphics/SVG/1.1/DTD/svg11.dtd">
<svg version="1.1" id="Layer_1" xmlns="http://www.w3.org/2000/svg" xmlns:xlink="http://www.w3.org/1999/xlink" x="0px" y="0px"
	 width="128px" height="128px" viewBox="0 0 128 128" enable-background="new 0 0 128 128" xml:space="preserve">
<g>
	<path fill="#FFFFFF" d="M99.426,31.327c-1.967-1.258-3.99-2.428-6.066-3.488c-10.355-5.292-21.543-7.975-33.248-7.975
		s-22.89,2.684-33.248,7.975C16.992,32.882,8.245,40.245,1.572,49.13c-2.49,3.315-1.821,8.021,1.494,10.51
		c1.351,1.015,2.932,1.505,4.501,1.505c2.28,0,4.532-1.035,6.008-2.999c11.107-14.789,28.068-23.271,46.537-23.271
		c8.813,0,17.281,1.937,24.935,5.562C88.693,36.021,93.702,32.771,99.426,31.327z"/>
	<path fill="#FFFFFF" d="M60.112,76.156c-8.218,0-16.072,3.926-21.012,10.504c-2.49,3.314-1.82,8.02,1.495,10.508
		c3.314,2.49,8.018,1.82,10.507-1.494c2.151-2.863,5.435-4.506,9.01-4.506c3.575,0,6.859,1.643,9.009,4.506
		c1.477,1.963,3.729,3,6.008,3c1.569,0,3.15-0.49,4.501-1.504c3.315-2.49,3.983-7.195,1.493-10.51
		C76.186,80.084,68.33,76.156,60.112,76.156z"/>
	<path fill="#FFFFFF" d="M79.447,51.878c-6.012-2.527-12.555-3.869-19.335-3.869c-15.786,0-30.284,7.248-39.775,19.886
		c-2.49,3.315-1.822,8.021,1.494,10.51c1.351,1.016,2.931,1.506,4.501,1.506c2.279,0,4.532-1.037,6.007-3
		c6.63-8.826,16.753-13.889,27.773-13.889c8.164,0,15.832,2.78,21.957,7.807c-2.09-3.863-3.274-8.286-3.274-12.986
		C78.793,55.794,79.02,53.798,79.447,51.878z"/>
	<path fill="#FFFFFF" d="M107.372,36.708c-11.429,0-20.694,9.266-20.694,20.693c0,11.43,9.266,20.697,20.694,20.697
		c11.428,0,20.694-9.267,20.694-20.697C128.066,45.974,118.801,36.708,107.372,36.708z M107.372,72.924
		c-8.558,0-15.521-6.963-15.521-15.522c0-3.347,1.063-6.449,2.873-8.988l21.635,21.635
		C113.823,71.859,110.721,72.924,107.372,72.924z M120.02,66.391L98.383,44.755c2.539-1.809,5.643-2.874,8.989-2.874
		c8.56,0,15.521,6.963,15.521,15.521C122.893,60.749,121.828,63.853,120.02,66.391z"/>
</g>
</svg>
