<?xml version="1.0" encoding="utf-8"?>
<!-- Generator: Adobe Illustrator 19.2.0, SVG Export Plug-In . SVG Version: 6.00 Build 0)  -->
<svg version="1.1" id="Layer_1" xmlns="http://www.w3.org/2000/svg" xmlns:xlink="http://www.w3.org/1999/xlink" x="0px" y="0px"
	 viewBox="0 0 144 144" style="enable-background:new 0 0 144 144;" xml:space="preserve">
<style type="text/css">
	.st0{fill:#FF0000;}
</style>
<g>
	<path class="st0" d="M96.7,117.2c-1.3-4.2-2.9-8.5-4.2-12.9h-7.9c1.5,5.2,3.3,10.4,5,15.2c1,2.7,1.7,5.2,2.5,7.9
		c0.6,1.5,1.9,2.7,3.7,2.7c0.4,0,0.8,0,1.2-0.2c1.9-0.6,3.1-2.9,2.5-4.8C98.4,122.4,97.5,119.9,96.7,117.2z"/>
	<path class="st0" d="M51,104.3c-0.4,1.3-1,2.7-1.4,4.1c-1.7,5.4-3.5,11-5.6,16.4c-0.8,1.9,0.2,4.2,2.1,4.8c0.4,0.2,1,0.2,1.4,0.2
		c1.5,0,2.9-1,3.5-2.5c2.1-5.6,3.9-11.2,5.6-16.8c0.8-2.1,1.3-4.2,2.1-6.4H51V104.3z"/>
	<path class="st0" d="M112.5,107.7c7.5,0,13.5-6,13.5-13.5v-54c0-7.5-6-13.5-13.5-13.5h-81c-7.5,0-13.5,6-13.5,13.5v54
		c0,7.5,6,13.5,13.5,13.5H112.5z M31.5,101c-3.7,0-6.8-3.1-6.8-6.8v-54c0-3.7,3.1-6.8,6.8-6.8h81c3.7,0,6.8,3.1,6.8,6.8v54
		c0,3.7-3.1,6.8-6.8,6.8H31.5z"/>
	<path class="st0" d="M71.8,32.5c-2.1,0-3.9-1.7-3.9-3.9v-8.1c0-2.1,1.7-3.9,3.9-3.9c2.1,0,3.9,1.7,3.9,3.9v8.1
		C75.5,30.8,73.7,32.5,71.8,32.5z"/>
	<path class="st0" d="M36.9,88.4c-0.6,0-1.4-0.2-1.7-0.8c-1.2-1-1.3-2.7-0.2-3.9l11.6-13.3c1-1,2.5-1.2,3.5-0.6l10.2,6.6l17-18.7
		c0.6-0.6,1.5-1,2.3-1c1,0.2,1.7,0.6,2.1,1.5l3.7,7.3l13.1-15.4c1-1.2,2.7-1.4,3.9-0.4s1.3,2.7,0.4,3.9l-16,19c-0.6,0.8-1.5,1-2.3,1
		c-1-0.2-1.7-0.6-2.1-1.5l-3.9-7.5l-16,17.7c-1,1-2.3,1.2-3.5,0.4l-10-6.6L39,87.5C38.4,88.2,37.7,88.4,36.9,88.4z"/>
	<path class="st0" d="M102.7,47.2l-6,0.6c-0.8,0-1.5,0.8-1.7,1.5c-0.2,0.8,0,1.7,0.8,2.3l1.7,1.3l-0.8,1l3.3,2.7l0.8-1l1.7,1.3
		c0.6,0.6,1.5,0.6,2.3,0.2c0.2-0.2,0.4-0.4,0.6-0.6c0.4-0.4,0.6-1,0.4-1.5l-0.6-6C105,47.9,103.8,47,102.7,47.2z"/>
</g>
</svg>
