<?xml version="1.0" encoding="utf-8"?>
<!-- Generator: Adobe Illustrator 19.2.0, SVG Export Plug-In . SVG Version: 6.00 Build 0)  -->
<svg version="1.1" id="Layer_1" xmlns="http://www.w3.org/2000/svg" xmlns:xlink="http://www.w3.org/1999/xlink" x="0px" y="0px"
	 viewBox="0 0 144 144" style="enable-background:new 0 0 144 144;" xml:space="preserve">
<style type="text/css">
	.st0{fill:none;stroke:#FF0000;stroke-width:6;stroke-miterlimit:10;}
	.st1{fill:none;stroke:#FF0000;stroke-width:4;stroke-linecap:round;stroke-miterlimit:10;}
</style>
<g>
	<path class="st0" d="M114.6,72.4c0-5.1,3.6-9.6,8.3-11c1.8-0.4,2.9-2,2.9-3.8V41.4c0-2.2-1.8-3.8-3.8-3.8H21.9
		c-2.2,0-3.8,1.8-3.8,3.8v16.3c0,1.8,1.3,3.4,2.9,3.8c4.9,1.3,8.3,5.8,8.3,11c0,5.1-3.6,9.6-8.3,11c-1.8,0.4-2.9,2-2.9,3.8v15.4
		c0,2.2,1.8,3.8,3.8,3.8h100.4c2.2,0,3.8-1.8,3.8-3.8V87.2c0-1.8-1.3-3.4-2.9-3.8C118.2,82.1,114.6,77.6,114.6,72.4z M105,82.3
		c0,6.5-5.4,11.9-11.9,11.9H50.7c-6.5,0-11.9-5.4-11.9-11.9V61.7c0-6.5,5.4-11.9,11.9-11.9h42.5c6.5,0,11.9,5.4,11.9,11.9v20.6H105z
		"/>
</g>
<g>
	<g>
		<path class="st1" d="M71.9,72c-4,0-7.4-2.2-7.4-5.1s3.4-5.1,7.4-5.1s7.4,2.2,7.4,5.1"/>
		<path class="st1" d="M71.9,72c4,0,7.4,2.2,7.4,5.1s-3.4,5.1-7.4,5.1s-7.4-2.2-7.4-5.1"/>
	</g>
	<line class="st1" x1="71.9" y1="85" x2="71.9" y2="59"/>
</g>
</svg>
