<?xml version="1.0" encoding="utf-8"?>
<!-- Generator: Adobe Illustrator 19.2.0, SVG Export Plug-In . SVG Version: 6.00 Build 0)  -->
<svg version="1.1" id="Layer_1" xmlns="http://www.w3.org/2000/svg" xmlns:xlink="http://www.w3.org/1999/xlink" x="0px" y="0px"
	 viewBox="0 0 144 144" style="enable-background:new 0 0 144 144;" xml:space="preserve">
<style type="text/css">
	.st0{fill:none;stroke:#FF0000;stroke-width:6;stroke-linecap:round;stroke-miterlimit:10;}
	.st1{fill:none;stroke:#FF0000;stroke-width:4;stroke-linecap:round;stroke-miterlimit:10;}
</style>
<g>
	<path class="st0" d="M116.6,24.4l-40-4.4c-1.6-0.2-3.4,0.4-4.6,1.6L19.6,73.9c-2.2,2.2-2.2,5.8,0,7.9l44.6,44.6
		c2.2,2.2,5.8,2.2,7.9,0l52.2-52.6c1.2-1.2,1.8-2.8,1.6-4.6l-4.4-40.1C121.2,26.7,119.2,24.8,116.6,24.4z"/>
	<ellipse transform="matrix(0.7071 -0.7071 0.7071 0.7071 -6.0031 83.4939)" class="st0" cx="97.8" cy="49" rx="11.1" ry="11.1"/>
	<line class="st0" x1="28.8" y1="64.8" x2="80.3" y2="116.2"/>
</g>
<g>
	<g>
		<path class="st1" d="M73,73.9c-3,3-7.1,3.8-9.3,1.6c-2.2-2.2-1.4-6.3,1.6-9.3c3-3,7.1-3.8,9.3-1.6"/>
		<path class="st1" d="M73,73.9c3-3,7.1-3.8,9.3-1.6c2.2,2.2,1.4,6.3-1.6,9.3s-7.1,3.8-9.3,1.6"/>
	</g>
	<line class="st1" x1="82.7" y1="83.7" x2="63.3" y2="64.2"/>
</g>
</svg>
