<?xml version="1.0" encoding="utf-8"?>
<!-- Generator: Adobe Illustrator 16.0.4, SVG Export Plug-In . SVG Version: 6.00 Build 0)  -->
<!DOCTYPE svg PUBLIC "-//W3C//DTD SVG 1.1//EN" "http://www.w3.org/Graphics/SVG/1.1/DTD/svg11.dtd">
<svg version="1.1" id="Layer_1" xmlns="http://www.w3.org/2000/svg" xmlns:xlink="http://www.w3.org/1999/xlink" x="0px" y="0px"
	 width="256px" height="256px" viewBox="0 0 256 256" enable-background="new 0 0 256 256" xml:space="preserve">
<path fill="#EFEFEF" d="M249.176,90.892l-80-56c-2.74-1.918-5.951-2.892-9.178-2.892c-2.525,0-5.062,0.597-7.387,1.808
	C147.318,36.562,144,42.033,144,48v17.338c-18.612,2.073-41.456,7.11-61.67,18.726c-15.361,8.826-27.413,20.416-35.825,34.449
	C36.881,134.572,32,153.914,32,176c0,3.807,2.683,7.087,6.416,7.841c0.531,0.107,1.062,0.159,1.588,0.159
	c3.165,0,6.102-1.889,7.369-4.896C60.583,147.73,98.47,143.5,133.788,143.5c3.454,0,6.856,0.04,10.212,0.098V160
	c0,5.965,3.318,11.436,8.611,14.189c2.322,1.211,4.859,1.811,7.387,1.811c3.227,0,6.438-0.975,9.178-2.895l80-56
	C253.452,114.112,256,109.22,256,104C256,98.778,253.452,93.886,249.176,90.892z M160,160v-32.082
	c-2.35-0.041-4.77-0.095-7.252-0.148c-6.102-0.133-12.409-0.27-18.96-0.27c-16.778,0-38.486,0.812-57.587,7.157
	c-9.596,3.188-17.852,7.567-24.731,13.11c5.783-21.608,18.774-38.309,38.832-49.832c23.427-13.46,51.329-17.044,69.698-17.777V48
	l80,56L160,160z M216,224H8c-4.418,0-8-3.582-8-8V56c0-4.419,3.582-8,8-8h80c4.418,0,8,3.581,8,8c0,4.418-3.582,8-8,8H16v144h192
	v-24c0-4.419,3.582-8,8-8c4.419,0,8,3.581,8,8v32C224,220.418,220.419,224,216,224L216,224z"/>
</svg>
