<?xml version="1.0" encoding="utf-8"?>
<!-- Generator: Adobe Illustrator 16.0.4, SVG Export Plug-In . SVG Version: 6.00 Build 0)  -->
<!DOCTYPE svg PUBLIC "-//W3C//DTD SVG 1.1//EN" "http://www.w3.org/Graphics/SVG/1.1/DTD/svg11.dtd">
<svg version="1.1" id="Layer_1" xmlns="http://www.w3.org/2000/svg" xmlns:xlink="http://www.w3.org/1999/xlink" x="0px" y="0px"
	 width="256px" height="256px" viewBox="0 0 256 256" enable-background="new 0 0 256 256" xml:space="preserve">
<path fill="#EFEFEF" d="M249.395,36.225c-2.885-2.365-6.475-3.627-10.143-3.627c-1.045,0-2.096,0.102-3.137,0.311l-74.619,14.924
	l-59.088-29.545c-2.234-1.117-4.686-1.689-7.155-1.689c-1.048,0-2.099,0.104-3.138,0.311l-80,16
	c-7.48,1.496-12.862,8.062-12.862,15.689v159.604c0,4.793,2.149,9.334,5.855,12.373c2.885,2.365,6.478,3.627,10.145,3.627
	c1.045,0,2.096-0.102,3.138-0.311l74.617-14.925l59.09,29.546c2.234,1.116,4.687,1.688,7.154,1.688c1.049,0,2.1-0.104,3.139-0.312
	l80-16c7.479-1.496,12.861-8.062,12.861-15.688V48.598C255.252,43.805,253.104,39.264,249.395,36.225z M155.252,62.598v125.32
	c-10.025-7.238-14.961-17.824-20.533-29.804c-7.07-15.198-15.056-32.36-35.466-45.343V34.598L155.252,62.598z M15.252,208.201
	V48.598l76-15.2v77.746c-15.176,0.979-27.916,7.562-37.014,19.213c-11.807,15.121-14.92,23.334-14.466,43.215
	c0.051,2.21,2.707,3.447,4.85,2.91c2.145-0.535,2.865-2.643,2.911-4.851c0.385-18.528,2.842-23.327,13.01-36.351
	c7.533-9.648,18.093-15.168,30.709-16.125v73.845L15.252,208.201z M99.252,194.201v-71.74
	c15.307,11.289,21.855,25.365,28.213,39.027c6.572,14.126,12.803,27.5,27.787,35.91v24.803L99.252,194.201z M239.252,208.201
	l-76,15.199v-24.645c10.902-1.247,21.074-7.861,30.078-18.056c10.337-11.701,22.914-34.739,17.846-60.087
	c-0.434-2.167-2.545-3.576-4.707-3.138c-2.166,0.433-3.572,2.54-3.139,4.706c4.627,23.127-5.33,41.817-16.188,53.446
	c-5.516,5.907-13.238,13.553-23.892,15.068V63.798l76-15.2L239.252,208.201L239.252,208.201z M226.451,107.799
	c-0.785,1.047-1.986,1.6-3.203,1.6c-0.836,0-1.676-0.261-2.396-0.8l-12.897-9.674l-13.578,16.974c-0.789,0.986-1.951,1.5-3.125,1.5
	c-0.877,0-1.758-0.286-2.496-0.877c-1.726-1.38-2.006-3.896-0.625-5.621l13.422-16.778L188.854,84.6
	c-1.767-1.325-2.125-3.833-0.799-5.601c1.325-1.766,3.832-2.124,5.6-0.8l12.897,9.674L220.129,70.9
	c1.379-1.726,3.896-2.006,5.621-0.625c1.725,1.38,2.006,3.896,0.625,5.623l-13.422,16.776l12.699,9.523
	C227.42,103.523,227.777,106.031,226.451,107.799z"/>
</svg>
