<?xml version="1.0" encoding="utf-8"?>
<!-- Generator: Adobe Illustrator 16.0.4, SVG Export Plug-In . SVG Version: 6.00 Build 0)  -->
<!DOCTYPE svg PUBLIC "-//W3C//DTD SVG 1.1//EN" "http://www.w3.org/Graphics/SVG/1.1/DTD/svg11.dtd">
<svg version="1.1" id="Layer_1" xmlns="http://www.w3.org/2000/svg" xmlns:xlink="http://www.w3.org/1999/xlink" x="0px" y="0px"
	 width="256px" height="256px" viewBox="0 0 256 256" enable-background="new 0 0 256 256" xml:space="preserve">
<g>
	<path fill="#EFEFEF" d="M233.823,112.815c2.954-7.596,4.483-15.704,4.483-24.03c0-36.619-29.791-66.407-66.406-66.407
		c-16.896,0-32.991,6.35-45.323,17.881c-5.725,5.348-10.393,11.579-13.868,18.401c-7.087-3.266-14.876-5.032-22.839-5.032
		c-30.157,0-54.688,24.533-54.688,54.687c0,3.425,0.323,6.827,0.957,10.163c-18.686,6.17-32.208,24.859-32.208,45.584
		C3.931,189.908,24.96,212,50.807,212h148.438c30.149,0,54.687-25.596,54.687-55.75c0-11.35-3.449-22.764-9.968-32.013
		C241.062,120.127,237.652,115.941,233.823,112.815z M199.245,196H50.807c-17.263,0-31.25-14.861-31.25-32.125
		c0-17.26,13.987-31.688,31.25-31.688c3.058,0,6.013,0.229,8.807,1.049c-5.503-6.73-8.807-15.439-8.807-24.812
		c0-21.576,17.488-39.118,39.062-39.118c12.869,0,24.284,6.198,31.393,15.8c1.905-26.315,23.839-47.092,50.638-47.092
		c28.043,0,50.781,22.729,50.781,50.775c0,11.151-3.604,21.457-9.699,29.834c14.793,5.562,25.324,20.701,25.324,37.438
		C238.307,177.641,220.818,196,199.245,196z"/>
	<path fill="#EFEFEF" d="M190,116.321V98.334c0-12.75-11.279-23.122-24-23.122c-12.723,0-24,10.372-24,23.122v17.987
		c-3,2.305-6,6.14-6,10.092v22.463v11.231c0,3.445,3.963,7.893,7.48,7.893h44.926c3.322,0,7.594-4.32,7.594-7.893v-11.231v-22.463
		C196,122.461,194,118.626,190,116.321z M188,150v10h-44v-10H188z M188,126.413V146h-44v-19.587c0-2.875,2.572-4.413,5.096-4.413
		h33.694C185.586,122,188,123.726,188,126.413z M183,115h-5V98.334c0-6.557-5.457-11.891-12-11.891c-6.542,0-12,5.334-12,11.891V115
		h-5V98.334c0-8.926,7.914-16.188,17-16.188s17,7.262,17,16.188V115z M161,98.334c0-2.732,2.273-4.956,5-4.956
		c2.725,0,5,2.224,5,4.956V115h-10V98.334z"/>
</g>
</svg>
