<?xml version="1.0" encoding="utf-8"?>
<!-- Generator: Adobe Illustrator 16.0.0, SVG Export Plug-In . SVG Version: 6.00 Build 0)  -->
<!DOCTYPE svg PUBLIC "-//W3C//DTD SVG 1.1//EN" "http://www.w3.org/Graphics/SVG/1.1/DTD/svg11.dtd">
<svg version="1.1" id="Layer_1" xmlns="http://www.w3.org/2000/svg" xmlns:xlink="http://www.w3.org/1999/xlink" x="0px" y="0px"
	 width="56.693px" height="56.693px" viewBox="0 0 56.693 56.693" enable-background="new 0 0 56.693 56.693" xml:space="preserve">
<path fill="#313A48" d="M28.348,5.158c-13.602,0-24.625,11.023-24.625,24.623s11.023,24.625,24.625,24.625
	c13.598,0,24.623-11.025,24.623-24.625S41.945,5.158,28.348,5.158z"/>
<path fill="#FFFFFF" d="M21.737,25.509v-3.15c0-3.474,2.826-6.3,6.3-6.3c3.474,0,6.299,2.827,6.299,6.3v3.15
	c0,3.474-2.825,6.299-6.299,6.299C24.562,31.808,21.737,28.983,21.737,25.509z M39.766,36.7c-0.271-0.136-6.692-3.317-11.729-3.317
	c-5.04,0-11.46,3.182-11.73,3.317c-0.534,0.266-0.871,0.812-0.871,1.408v1.575c0,0.869,0.706,1.574,1.575,1.574h22.051
	c0.87,0,1.573-0.705,1.573-1.574v-1.575C40.635,37.511,40.3,36.966,39.766,36.7z"/>
</svg>
