<?xml version="1.0" encoding="utf-8"?>
<!-- Generator: Adobe Illustrator 19.2.1, SVG Export Plug-In . SVG Version: 6.00 Build 0)  -->
<svg version="1.1" id="Layer_1" xmlns="http://www.w3.org/2000/svg" xmlns:xlink="http://www.w3.org/1999/xlink" x="0px" y="0px"
	 viewBox="0 0 56.7 56.7" style="enable-background:new 0 0 56.7 56.7;" xml:space="preserve">
<path d="M6.9,44c0-1.6,0.6-2.9,1.7-4s2.5-1.7,4-1.7s2.9,0.6,4,1.7c1.1,1.1,1.7,2.5,1.7,4c0,1.6-0.6,3-1.7,4.1
	c-1.1,1.1-2.5,1.7-4,1.7s-2.9-0.6-4-1.7C7.5,46.9,6.9,45.6,6.9,44z M6.9,29.7v-8.2c5.1,0,9.8,1.3,14.2,3.8s7.8,6,10.3,10.3
	s3.8,9.1,3.8,14.2H27c0-5.5-2-10.3-5.9-14.2C17.2,31.6,12.4,29.7,6.9,29.7z M6.9,15.1V6.9c5.8,0,11.3,1.1,16.6,3.4s9.8,5.3,13.7,9.2
	s6.9,8.4,9.2,13.7c2.3,5.3,3.4,10.8,3.4,16.6h-8.2c0-4.7-0.9-9.2-2.7-13.5c-1.8-4.3-4.3-8-7.4-11.1c-3.1-3.1-6.8-5.5-11.1-7.4
	C16.1,16.1,11.6,15.1,6.9,15.1z"/>
</svg>
