<?xml version="1.0" encoding="utf-8"?>
<!-- Generator: Adobe Illustrator 16.0.4, SVG Export Plug-In . SVG Version: 6.00 Build 0)  -->
<!DOCTYPE svg PUBLIC "-//W3C//DTD SVG 1.1//EN" "http://www.w3.org/Graphics/SVG/1.1/DTD/svg11.dtd">
<svg version="1.1" id="Layer_1" xmlns="http://www.w3.org/2000/svg" xmlns:xlink="http://www.w3.org/1999/xlink" x="0px" y="0px"
	 width="56.693px" height="56.693px" viewBox="0 0 56.693 56.693" enable-background="new 0 0 56.693 56.693" xml:space="preserve">
<g>
	<path d="M12.08,17.265c2.839,0,5.144-2.306,5.144-5.147c0-2.841-2.305-5.146-5.144-5.146c-2.851,0-5.149,2.306-5.149,5.146
		C6.931,14.959,9.23,17.265,12.08,17.265z"/>
	<path d="M30.952,35.598c0-3.726,0.705-7.334,5.322-7.334c4.555,0,4.611,4.26,4.611,7.57v13.887h8.875v-15.66
		c0-7.691-1.66-13.604-10.646-13.604c-4.318,0-7.214,2.368-8.397,4.613h-0.122v-3.904h-8.507v28.555h8.864V35.598z"/>
	<rect x="7.636" y="21.166" width="8.884" height="28.555"/>
</g>
</svg>
