<?xml version="1.0" encoding="utf-8"?>
<!-- Generator: Adobe Illustrator 16.0.4, SVG Export Plug-In . SVG Version: 6.00 Build 0)  -->
<!DOCTYPE svg PUBLIC "-//W3C//DTD SVG 1.1//EN" "http://www.w3.org/Graphics/SVG/1.1/DTD/svg11.dtd">
<svg version="1.1"
	 id="Layer_1" xmlns:svg="http://www.w3.org/2000/svg" xmlns:cc="http://creativecommons.org/ns#" xmlns:rdf="http://www.w3.org/1999/02/22-rdf-syntax-ns#" xmlns:dc="http://purl.org/dc/elements/1.1/"
	 xmlns="http://www.w3.org/2000/svg" xmlns:xlink="http://www.w3.org/1999/xlink" x="0px" y="0px" width="24px" height="27px"
	 viewBox="0 0 24 27" enable-background="new 0 0 24 27" xml:space="preserve">
<g>
	<path fill="#FFFFFF" d="M6.438,6.232c0.791,0,1.746,0.164,2.863,0.49c1.128,0.327,1.877,0.491,2.246,0.491
		c0.475,0,1.249-0.185,2.325-0.554c1.075-0.369,2.009-0.554,2.8-0.554c1.297,0,2.451,0.348,3.465,1.044
		c0.568,0.401,1.133,0.944,1.691,1.629c-0.844,0.717-1.461,1.355-1.852,1.914c-0.707,1.012-1.06,2.13-1.06,3.354
		c0,1.339,0.374,2.546,1.123,3.622c0.748,1.075,1.603,1.755,2.562,2.04c-0.4,1.297-1.064,2.653-1.992,4.065
		c-1.403,2.119-2.795,3.18-4.176,3.18c-0.55,0-1.309-0.174-2.279-0.521c-0.959-0.35-1.771-0.521-2.436-0.521
		c-0.665,0-1.439,0.18-2.325,0.537C8.521,26.814,7.809,27,7.26,27c-1.656,0-3.279-1.4-4.872-4.207C0.796,20.02,0,17.299,0,14.631
		c0-2.478,0.606-4.497,1.819-6.058C3.042,7.012,4.582,6.232,6.438,6.232 M16.402,0c0.041,0.137,0.068,0.258,0.078,0.364
		c0.012,0.105,0.017,0.211,0.017,0.316c0,0.675-0.158,1.413-0.474,2.214c-0.316,0.801-0.817,1.545-1.504,2.23
		c-0.59,0.58-1.176,0.97-1.756,1.17C12.395,6.41,11.836,6.5,11.087,6.563c0.021-1.603,0.438-2.989,1.25-4.16
		C13.16,1.234,14.516,0.433,16.402,0"/>
</g>
</svg>
