<?xml version="1.0" encoding="utf-8"?>
<!-- Generator: Adobe Illustrator 16.0.4, SVG Export Plug-In . SVG Version: 6.00 Build 0)  -->
<!DOCTYPE svg PUBLIC "-//W3C//DTD SVG 1.1//EN" "http://www.w3.org/Graphics/SVG/1.1/DTD/svg11.dtd">
<svg version="1.1" id="Layer_1" xmlns="http://www.w3.org/2000/svg" xmlns:xlink="http://www.w3.org/1999/xlink" x="0px" y="0px"
	 width="25px" height="27px" viewBox="0 0 25 27" enable-background="new 0 0 25 27" xml:space="preserve">
<g>
	<path fill="#FFFFFF" d="M8.129,2.777C6.106,3.932,4.757,5.998,4.757,8.355c0,0.016,0.001,0.033,0.001,0.05
		c0,0.009-0.001,0.018-0.001,0.028v0.042h14.199V8.434c0-0.01-0.001-0.019-0.001-0.028c0-0.017,0.001-0.034,0.001-0.05
		c0-2.358-1.349-4.424-3.372-5.579l1.122-2.023c0.136-0.245,0.048-0.554-0.198-0.689c-0.244-0.136-0.554-0.048-0.689,0.198
		L14.67,2.338c-0.859-0.344-1.813-0.535-2.812-0.535s-1.95,0.191-2.812,0.535l-1.15-2.075C7.759,0.016,7.45-0.072,7.206,0.064
		C6.96,0.2,6.872,0.508,7.008,0.753L8.129,2.777z M16.148,5.157c0,0.402-0.328,0.729-0.729,0.729s-0.729-0.326-0.729-0.729
		c0-0.403,0.326-0.729,0.729-0.729C15.82,4.428,16.148,4.754,16.148,5.157z M7.711,5.157c0-0.402,0.327-0.729,0.729-0.729
		s0.729,0.327,0.729,0.729c0,0.402-0.327,0.728-0.729,0.728S7.711,5.559,7.711,5.157z"/>
	<path fill="#FFFFFF" d="M21.842,9.057c-1.033,0-1.871,0.838-1.871,1.872v6.631c0,1.033,0.838,1.873,1.871,1.873
		c1.034,0,1.873-0.84,1.873-1.873v-6.631C23.714,9.895,22.875,9.057,21.842,9.057z"/>
	<path fill="#FFFFFF" d="M16.382,21.617h0.858c0.947,0,1.717-0.77,1.717-1.717V9.481h-14.2V19.9c0,0.949,0.769,1.717,1.717,1.717
		h0.858v3.51C7.332,26.161,8.17,27,9.204,27c1.035,0,1.873-0.839,1.873-1.873v-3.51h1.56v3.51c0,1.034,0.837,1.873,1.873,1.873
		c1.034,0,1.872-0.839,1.872-1.873V21.617z"/>
	<path fill="#FFFFFF" d="M1.872,9.057C0.838,9.057,0,9.895,0,10.928v6.633c0,1.033,0.838,1.871,1.872,1.871s1.872-0.838,1.872-1.871
		v-6.633C3.744,9.895,2.906,9.057,1.872,9.057z"/>
</g>
</svg>
