<?xml version="1.0" encoding="utf-8"?>
<!-- Generator: Adobe Illustrator 16.0.4, SVG Export Plug-In . SVG Version: 6.00 Build 0)  -->
<!DOCTYPE svg PUBLIC "-//W3C//DTD SVG 1.1//EN" "http://www.w3.org/Graphics/SVG/1.1/DTD/svg11.dtd">
<svg version="1.1" id="Layer_1" xmlns="http://www.w3.org/2000/svg" xmlns:xlink="http://www.w3.org/1999/xlink" x="0px" y="0px"
	 width="32px" height="27px" viewBox="0 0 32 27" enable-background="new 0 0 32 27" xml:space="preserve">
<g>
	<path fill="#FFFFFF" d="M27,0H3.857C1.73,0,0,1.73,0,3.857v15.429c0,2.127,1.73,3.856,3.857,3.856h2.101
		C5.3,23.872,5.11,24.783,5.452,25.609C5.812,26.48,6.658,27,7.714,27h15.429c1.057,0,1.902-0.52,2.262-1.391
		c0.343-0.826,0.152-1.738-0.506-2.467H27c2.127,0,3.857-1.729,3.857-3.856V3.857C30.857,1.73,29.127,0,27,0z M23.143,25.07H7.714
		c-0.53,0-0.657-0.307-0.282-0.682l1.247-1.246h13.5l1.246,1.246C23.8,24.766,23.673,25.07,23.143,25.07z M28.93,19.286
		c0,1.062-0.869,1.929-1.93,1.929H3.857c-1.061,0-1.929-0.867-1.929-1.929V3.857c0-1.061,0.868-1.928,1.929-1.928H27
		c1.061,0,1.93,0.868,1.93,1.928V19.286z"/>
	<path fill="#FFFFFF" d="M25.943,3.688H4.915c-0.552,0-1,0.448-1,1V18.23c0,0.552,0.448,1,1,1h21.028c0.552,0,1-0.448,1-1V4.688
		C26.943,4.135,26.495,3.688,25.943,3.688z"/>
</g>
</svg>
