<?xml version="1.0" encoding="utf-8"?>
<!-- Generator: Adobe Illustrator 19.2.1, SVG Export Plug-In . SVG Version: 6.00 Build 0)  -->
<svg version="1.1" id="Layer_1" xmlns="http://www.w3.org/2000/svg" xmlns:xlink="http://www.w3.org/1999/xlink" x="0px" y="0px"
	 viewBox="0 0 72 22.2" style="enable-background:new 0 0 72 22.2;" xml:space="preserve">
<style type="text/css">
	.st0{fill:#080A0B;}
	.st1{fill:#FFFFFF;}
	.st2{font-family:'MyriadPro-Regular';}
	.st3{font-size:5.5385px;}
	.st4{font-family:'MyriadPro-Semibold';}
	.st5{font-size:9.9692px;}
</style>
<g id="background_1_">
	<g>
		<path class="st0" d="M69.8,0H2.2C1,0,0,1,0,2.2v17.7c0,1.2,1,2.2,2.2,2.2h67.6c1.2,0,2.2-1,2.2-2.2V2.2C72,1,71,0,69.8,0z"/>
	</g>
</g>
<text transform="matrix(1 0 0 1 21.1933 7.5693)"><tspan x="0" y="0" class="st1 st2 st3">D</tspan><tspan x="3.6" y="0" class="st1 st2 st3">o</tspan><tspan x="6.6" y="0" class="st1 st2 st3">w</tspan><tspan x="10.5" y="0" class="st1 st2 st3">n</tspan><tspan x="13.3" y="0" class="st1 st2 st3">l</tspan><tspan x="14.7" y="0" class="st1 st2 st3">o</tspan><tspan x="18" y="0" class="st1 st2 st3">a</tspan><tspan x="20.9" y="0" class="st1 st2 st3">d </tspan><tspan x="25.2" y="0" class="st1 st2 st3">o</tspan><tspan x="28.2" y="0" class="st1 st2 st3">n</tspan><tspan x="31.3" y="0" class="st1 st2 st3"> </tspan><tspan x="32.7" y="0" class="st1 st2 st3">t</tspan><tspan x="34.4" y="0" class="st1 st2 st3">h</tspan><tspan x="37.8" y="0" class="st1 st2 st3">e</tspan><tspan x="-0.4" y="9.4" class="st1 st4 st5">A</tspan><tspan x="5.9" y="9.4" class="st1 st4 st5">p</tspan><tspan x="11.9" y="9.4" class="st1 st4 st5">p </tspan><tspan x="19.8" y="9.4" class="st1 st4 st5">S</tspan><tspan x="25" y="9.4" class="st1 st4 st5">tore</tspan></text>
<g id="icon_1_">
	<g>
		<path class="st1" d="M13.1,3.8c-1.2,0.1-2.9,1.3-2.7,3.2C12,7,13.3,5.2,13.1,3.8z M14.4,10.9c0-1.8,1.5-2.6,1.5-2.6
			s-1-1.5-2.6-1.5c-1.2,0-1.8,0.7-2.6,0.7c-0.9,0-1.4-0.7-2.6-0.7c-1.3,0-3.5,1.2-3.5,4.2c0,2.9,2.1,6.4,3.7,6.4
			c0.9,0,1.2-0.6,2.3-0.6c1.3,0,1.4,0.6,2.3,0.6c1.7,0,3.3-3.6,3.3-3.6S14.4,13.1,14.4,10.9z"/>
	</g>
</g>
</svg>
