<?xml version="1.0" encoding="utf-8"?>
<!-- Generator: Adobe Illustrator 19.2.1, SVG Export Plug-In . SVG Version: 6.00 Build 0)  -->
<svg version="1.1" id="Layer_1" xmlns="http://www.w3.org/2000/svg" xmlns:xlink="http://www.w3.org/1999/xlink" x="0px" y="0px"
	 viewBox="0 0 56.7 56.7" style="enable-background:new 0 0 56.7 56.7;" xml:space="preserve">
<style type="text/css">
	.st0{fill:#313A48;}
	.st1{fill:#FFFFFF;}
</style>
<circle class="st0" cx="28.3" cy="29.8" r="24.6"/>
<path class="st1" d="M40.8,22.5V35c0,0.9-0.7,1.6-1.6,1.6h-4.7l1.5,4.2c0.1,0.2,0.1,0.4,0.1,0.5c0,0.6-0.4,1.2-1,1.5
	c-0.2,0.1-0.4,0.1-0.5,0.1c-0.6,0-1.2-0.4-1.5-1l-1.9-5.2h-5.8l-1.9,5.2c-0.2,0.6-0.8,1-1.5,1c-0.2,0-0.4,0-0.5-0.1
	c-0.6-0.2-1-0.8-1-1.5c0-0.2,0-0.4,0.1-0.5l1.5-4.2h-4.7c-0.9,0-1.6-0.7-1.6-1.6V22.5c0-0.9,0.7-1.6,1.6-1.6h9.4v-1.6
	c0-0.9,0.7-1.6,1.6-1.6c0.9,0,1.6,0.7,1.6,1.6V21h9.4C40.2,21,40.8,21.7,40.8,22.5z M38.3,23.5c-0.1-0.1-0.3-0.2-0.6-0.2
	c-0.1,0-0.1,0-0.2,0l-3.1,0.8c-0.3,0.1-0.5,0.3-0.6,0.5c0,0.1,0,0.1,0,0.2c0,0.2,0.1,0.4,0.2,0.6l0.6,0.6l-4.8,4.8l-3.4-3.4
	c-0.2-0.2-0.4-0.2-0.6-0.2c-0.2,0-0.4,0.1-0.5,0.2L20,32.1c-0.2,0.2-0.3,0.4-0.3,0.6c0,0.2,0.1,0.4,0.2,0.5c0.2,0.2,0.4,0.3,0.6,0.3
	c0.2,0,0.4-0.1,0.5-0.2l4.9-4.2l3.4,3.4c0.2,0.2,0.4,0.2,0.6,0.2c0.2,0,0.4-0.1,0.6-0.2l5.3-5.3l0.6,0.6c0.1,0.1,0.3,0.2,0.6,0.2
	c0.1,0,0.1,0,0.2,0c0.3-0.1,0.5-0.3,0.5-0.6l0.8-3.1c0-0.1,0-0.1,0-0.2C38.5,23.9,38.4,23.7,38.3,23.5z"/>
</svg>
