<?xml version="1.0" encoding="utf-8"?>
<!-- Generator: Adobe Illustrator 21.0.0, SVG Export Plug-In . SVG Version: 6.00 Build 0)  -->
<svg version="1.1" id="Layer_1" xmlns="http://www.w3.org/2000/svg" xmlns:xlink="http://www.w3.org/1999/xlink" x="0px" y="0px"
	 viewBox="0 0 56.7 56.7" style="enable-background:new 0 0 56.7 56.7;" xml:space="preserve">
<style type="text/css">
	.st0{fill:#313A48;}
	.st1{fill:#FFFFFF;}
</style>
<path class="st0" d="M28.3,5.2c-13.6,0-24.6,11-24.6,24.6s11,24.6,24.6,24.6c13.6,0,24.6-11,24.6-24.6S41.9,5.2,28.3,5.2z"/>
<path class="st1" d="M42.3,17C40.6,20.4,31.7,32.1,27,34.9C26.9,35,26.8,35,26.6,35c-0.2,0-0.5-0.1-0.6-0.3l-2.6-2.6
	c-0.2-0.2-0.3-0.4-0.3-0.6c0-0.2,0-0.3,0.1-0.4c2.8-4.6,14.5-13.5,17.9-15.2c0.1-0.1,0.3-0.1,0.4-0.1c0.2,0,0.5,0.1,0.6,0.3
	c0.2,0.2,0.3,0.4,0.3,0.6C42.3,16.8,42.3,16.9,42.3,17z M14.3,43.8c1.7-3.5,10.5,0,10.5-7.9l-2.6-2.6C15.2,33.3,14.3,40.3,14.3,43.8
	z"/>
</svg>
