<?xml version="1.0" encoding="utf-8"?>
<!-- Generator: Adobe Illustrator 16.0.0, SVG Export Plug-In . SVG Version: 6.00 Build 0)  -->
<!DOCTYPE svg PUBLIC "-//W3C//DTD SVG 1.1//EN" "http://www.w3.org/Graphics/SVG/1.1/DTD/svg11.dtd">
<svg version="1.1" id="Layer_1" xmlns="http://www.w3.org/2000/svg" xmlns:xlink="http://www.w3.org/1999/xlink" x="0px" y="0px"
	 width="56.693px" height="56.693px" viewBox="0 0 56.693 56.693" enable-background="new 0 0 56.693 56.693" xml:space="preserve">
<path fill="#313A48" d="M28.348,5.158c-13.604,0-24.625,11.023-24.625,24.623s11.021,24.625,24.625,24.625
	c13.598,0,24.623-11.025,24.623-24.625S41.945,5.158,28.348,5.158z M38.516,28.932c-2.125,2.126-4.814,2.097-7.18,0.666
	c0,0-7.721,8.815-10.021,11.116c-0.555,0.555-1.322,0.897-2.169,0.897c-0.847,0-1.613-0.343-2.168-0.897s-0.898-1.322-0.898-2.169
	s0.343-1.614,0.898-2.169c2.299-2.299,11.115-10.021,11.115-10.021c-1.43-2.365-1.46-5.055,0.667-7.181
	c1.347-1.348,3.148-2.094,4.951-2.094c0.604,0,1.205,0.055,1.789,0.194l-3.863,3.863c-0.232,0.233-0.291,0.59-0.145,0.885
	c0.424,0.846,1.045,1.678,1.771,2.405c0.727,0.727,1.561,1.349,2.404,1.771c0.297,0.147,0.652,0.089,0.885-0.145l3.863-3.863
	c0.141,0.585,0.195,1.186,0.195,1.788C40.612,25.785,39.866,27.585,38.516,28.932z"/>
</svg>
