<?xml version="1.0" encoding="utf-8"?>
<!-- Generator: Adobe Illustrator 16.0.4, SVG Export Plug-In . SVG Version: 6.00 Build 0)  -->
<!DOCTYPE svg PUBLIC "-//W3C//DTD SVG 1.1//EN" "http://www.w3.org/Graphics/SVG/1.1/DTD/svg11.dtd">
<svg version="1.1" id="Layer_1" xmlns="http://www.w3.org/2000/svg" xmlns:xlink="http://www.w3.org/1999/xlink" x="0px" y="0px"
	 width="417.07px" height="149.974px" viewBox="0 0 417.07 149.974" enable-background="new 0 0 417.07 149.974"
	 xml:space="preserve">
<g id="Layer_2_xA0_Image_1_" display="none">
</g>
<g id="triangle">
	<polygon fill="#FF0000" points="99.108,30.687 71.775,0 45.292,30.687 	"/>
</g>
<g id="fulcrum">
	<g>
		<path d="M6.107,25.438c0-14.381,7.092-21.475,21.474-21.475h11.032v17.141h-7.092c-3.744,0-5.516,1.772-5.516,5.516v9.062h12.017
			v17.336H26.005v90.819H6.107V53.018H0V35.682h6.107V25.438z"/>
		<path d="M101.657,143.838H81.956v-7.092c-4.925,4.531-10.638,8.273-18.913,8.273h-0.788c-11.624,0-17.534-6.5-17.534-18.519
			V35.681H64.62v84.907c0,4.334,2.167,6.306,6.501,6.306c3.743,0,7.092-1.183,10.638-3.349V35.682h19.898V143.838L101.657,143.838z"
			/>
		<path d="M113.478,3.964h19.898v139.875h-19.898V3.964z"/>
		<path d="M181.641,59.717c0-4.925-2.364-7.29-7.289-7.29h-2.364c-4.728,0-7.092,2.365-7.092,7.29v60.086
			c0,4.927,2.364,7.289,7.092,7.289h2.561c4.925,0,7.29-2.362,7.29-7.289V97.936h19.503v23.049c0,15.957-8.077,24.035-24.035,24.035
			h-8.274c-15.958,0-24.035-8.078-24.035-24.035v-62.45c0-15.958,8.077-24.035,24.035-24.035h8.274
			c15.761,0,23.838,7.88,23.838,23.838v19.7h-19.504V59.717z"/>
		<path d="M211.981,35.682h19.703v11.624c4.53-8.669,8.864-12.608,16.746-12.608v22.064c-7.289,0.591-12.41,2.561-16.55,6.304
			v80.771h-19.899V35.682L211.981,35.682z"/>
		<path d="M313.048,143.838h-19.699v-7.092c-4.926,4.531-10.639,8.273-18.914,8.273h-0.787c-11.625,0-17.533-6.5-17.533-18.519
			V35.681h19.896v84.907c0,4.334,2.168,6.306,6.502,6.306c3.742,0,7.092-1.183,10.639-3.349V35.682h19.896V143.838L313.048,143.838z
			"/>
		<path d="M380.82,143.838h-20.096V58.732c0-4.137-1.771-6.107-5.908-6.107c-3.549,0-6.699,1.183-10.441,3.351v87.863h-19.898
			V35.682h19.701v7.092c5.121-4.531,10.836-8.274,18.715-8.274h0.789c7.684,0,12.805,3.152,15.365,9.062
			c5.715-5.319,11.625-9.062,20.096-9.062h0.789c11.031,0,17.139,6.501,17.139,18.322v91.017h-19.898V58.732
			c0-4.137-1.969-6.107-6.104-6.107c-3.549,0-6.699,1.183-10.246,3.351v87.862H380.82z"/>
	</g>
</g>
</svg>
