<?xml version="1.0" encoding="utf-8"?>
<!-- Generator: Adobe Illustrator 16.0.4, SVG Export Plug-In . SVG Version: 6.00 Build 0)  -->
<!DOCTYPE svg PUBLIC "-//W3C//DTD SVG 1.1//EN" "http://www.w3.org/Graphics/SVG/1.1/DTD/svg11.dtd">
<svg version="1.1" id="Layer_1" xmlns="http://www.w3.org/2000/svg" xmlns:xlink="http://www.w3.org/1999/xlink" x="0px" y="0px"
	 width="150px" height="20.938px" viewBox="0 0 150 20.938" enable-background="new 0 0 150 20.938" xml:space="preserve">
<path fill="#A9A9A9" d="M3.892,7.04c1.97,0,3.961,0.782,3.961,1.974c0,0.604-0.409,1.137-1.084,1.137
	c-1.013,0-1.048-1.19-2.684-1.19c-0.905,0-1.491,0.248-1.491,0.8c0,0.604,0.586,0.746,1.385,0.924l1.084,0.249
	c1.474,0.339,3.234,0.961,3.234,2.771c0,2.113-2.044,3.091-3.999,3.091C1.954,16.794,0,15.746,0,14.468
	c0-0.567,0.318-1.084,1.048-1.084c1.119,0,1.226,1.601,3.145,1.601c0.924,0,1.51-0.409,1.51-0.942c0-0.657-0.569-0.765-1.492-0.996
	l-1.528-0.372C1.172,12.3,0,11.678,0,9.936C0,7.822,2.096,7.04,3.892,7.04 M9.239,8.266c0-0.8,0.374-1.227,1.173-1.227
	c0.765,0,1.173,0.426,1.173,1.227v0.408h0.035c0.427-1.102,1.474-1.635,2.737-1.635c2.168,0,4.069,1.581,4.069,4.938
	c0,2.488-1.262,4.814-3.999,4.814c-1.19,0-2.079-0.479-2.558-1.313h-0.036v3.468c0,0.851-0.515,1.295-1.296,1.295
	c-0.782,0-1.298-0.444-1.298-1.295V8.266z M13.77,9.065c-1.51,0-2.079,1.35-2.079,2.826c0,1.332,0.498,2.896,2.079,2.879
	c1.652,0,2.061-1.671,2.061-2.879C15.83,10.362,15.156,9.101,13.77,9.065 M28.003,14.059c0,1.084,0.267,1.333,0.267,1.739
	c0,0.59-0.552,0.995-1.174,0.995c-1.12,0-1.492-0.709-1.528-1.509c-1.012,1.12-2.186,1.509-3.553,1.509
	c-1.475,0-2.932-1.011-2.932-2.646c0-2.149,1.635-2.756,3.625-2.986l1.581-0.178c0.621-0.07,1.119-0.213,1.119-0.959
	s-0.764-1.066-1.634-1.066c-1.919,0-1.972,1.421-3.002,1.421c-0.658,0-1.102-0.461-1.102-0.994c0-1.03,1.457-2.346,4.122-2.346
	c2.487,0,4.212,0.8,4.212,2.666L28.003,14.059L28.003,14.059z M25.407,12.192c-0.283,0.266-0.817,0.355-1.119,0.409l-0.942,0.142
	c-1.083,0.161-1.67,0.498-1.67,1.279c0,0.589,0.551,1.066,1.439,1.066c1.421,0,2.291-0.924,2.291-1.884L25.407,12.192L25.407,12.192
	z M30.206,8.977h-0.444c-0.729,0-1.03-0.283-1.03-0.853c0-0.568,0.301-0.854,1.03-0.854h0.444V5.689
	c0-0.854,0.516-1.297,1.296-1.297c0.782,0,1.298,0.443,1.298,1.297V7.27h0.782c0.764,0,1.172,0.231,1.172,0.854
	c0,0.621-0.408,0.853-1.172,0.853H32.8v5.188c0,0.392,0.213,0.604,0.676,0.604h0.373c0.569,0,0.906,0.318,0.906,0.869
	c0,0.747-0.64,1.153-1.883,1.153c-1.884,0-2.665-0.781-2.665-2.309L30.206,8.977L30.206,8.977z M36.832,3.469
	c0.748,0,1.351,0.604,1.351,1.351c0,0.747-0.603,1.35-1.351,1.35c-0.746,0-1.35-0.603-1.35-1.35S36.086,3.469,36.832,3.469
	 M35.536,8.338c0-0.692,0.284-1.298,1.296-1.298c1.015,0,1.298,0.604,1.298,1.298v7.159c0,0.694-0.283,1.297-1.298,1.297
	c-1.012,0-1.296-0.603-1.296-1.297V8.338z M48.241,14.059c0,1.084,0.265,1.333,0.265,1.739c0,0.59-0.55,0.995-1.172,0.995
	c-1.12,0-1.492-0.709-1.528-1.509c-1.013,1.12-2.185,1.509-3.554,1.509c-1.474,0-2.931-1.011-2.931-2.646
	c0-2.149,1.634-2.756,3.624-2.986l1.582-0.178c0.622-0.07,1.12-0.213,1.12-0.959s-0.764-1.066-1.635-1.066
	c-1.919,0-1.972,1.421-3.003,1.421c-0.656,0-1.102-0.461-1.102-0.994c0-1.03,1.458-2.346,4.123-2.346c2.487,0,4.212,0.8,4.212,2.666
	L48.241,14.059L48.241,14.059z M45.646,12.192c-0.284,0.266-0.817,0.355-1.12,0.409l-0.942,0.142
	c-1.083,0.161-1.67,0.498-1.67,1.279c0,0.589,0.552,1.066,1.441,1.066c1.421,0,2.292-0.924,2.292-1.884L45.646,12.192L45.646,12.192
	z M49.909,4.837c0-0.854,0.516-1.297,1.298-1.297c0.783,0,1.296,0.443,1.296,1.297v10.66c0,0.854-0.514,1.297-1.296,1.297
	s-1.298-0.441-1.298-1.297V4.837z"/>
<path fill="#A9A9A9" d="M76.896,8.65c0-0.782,0.355-1.298,1.172-1.298c0.817,0,1.175,0.516,1.175,1.298v0.337h0.034
	c0.729-0.959,1.668-1.635,3.146-1.635c1.563,0,3.271,0.781,3.271,3.412v5.045c0,0.693-0.283,1.297-1.297,1.297
	S83.1,16.503,83.1,15.809v-4.53c0-1.049-0.517-1.794-1.638-1.794c-0.903,0-1.971,0.746-1.971,2.043v4.281
	c0,0.693-0.285,1.297-1.298,1.297c-1.014,0-1.297-0.604-1.297-1.297V8.65L76.896,8.65z M89.246,12.718
	c0,1.369,0.887,2.365,2.396,2.365c1.955,0,1.955-1.279,3.004-1.279c0.623,0,1.063,0.531,1.063,1.013
	c0,1.562-2.504,2.291-4.067,2.291c-3.623,0-4.992-2.451-4.992-4.708c0-3.021,1.828-5.046,4.904-5.046c2.983,0,4.69,2.113,4.69,4.247
	c0,0.888-0.267,1.118-1.14,1.118L89.246,12.718L89.246,12.718z M93.794,11.227c-0.142-1.191-1.03-2.062-2.187-2.062
	c-1.297,0-2.08,0.799-2.361,2.062H93.794z M97.881,9.29h-0.443c-0.729,0-1.03-0.285-1.03-0.853c0-0.569,0.301-0.854,1.03-0.854
	h0.443V6.002c0-0.853,0.516-1.297,1.299-1.297c0.778,0,1.295,0.444,1.295,1.297v1.581h0.781c0.766,0,1.174,0.232,1.174,0.854
	c0,0.621-0.408,0.853-1.174,0.853h-0.781v5.188c0,0.391,0.213,0.604,0.674,0.604h0.375c0.567,0,0.906,0.319,0.906,0.869
	c0,0.748-0.641,1.154-1.885,1.154c-1.883,0-2.664-0.781-2.664-2.31V9.29L97.881,9.29z M102.803,9.52
	c-0.09-0.283-0.179-0.569-0.179-0.958c0-0.675,0.603-1.208,1.261-1.208c0.961,0,1.104,0.516,1.281,1.262l1.367,5.688h0.035
	l1.102-5.172c0.215-1.014,0.428-1.812,1.635-1.776c1.229-0.036,1.477,0.746,1.707,1.776l1.119,5.172h0.037l1.277-5.688
	c0.16-0.746,0.32-1.262,1.277-1.262c0.659,0,1.264,0.533,1.264,1.208c0,0.39-0.09,0.675-0.18,0.958l-1.898,6.185
	c-0.374,1.228-0.656,1.402-1.689,1.402c-1.082,0-1.351-0.319-1.615-1.351l-1.278-5.1h-0.037l-1.279,5.1
	c-0.268,1.03-0.532,1.351-1.616,1.351c-1.031,0-1.314-0.176-1.688-1.402L102.803,9.52z M120.945,7.353
	c3.125,0,4.795,2.133,4.795,4.869c0,2.594-1.262,4.885-4.795,4.885c-3.537,0-4.799-2.291-4.799-4.885
	C116.146,9.485,117.816,7.353,120.945,7.353 M120.945,15.188c1.545,0,2.203-1.387,2.203-2.967c0-1.688-0.695-2.95-2.203-2.95
	c-1.512,0-2.205,1.263-2.205,2.95C118.74,13.803,119.398,15.188,120.945,15.188 M126.842,8.561c0-0.782,0.516-1.208,1.176-1.208
	c0.654,0,1.172,0.426,1.172,1.208v0.995h0.035c0.301-1.084,0.89-2.203,2.148-2.203c0.816,0,1.422,0.532,1.422,1.262
	c0,0.959-0.641,1.297-1.279,1.297h-0.461c-1.049,0-1.617,0.729-1.617,2.879v3.02c0,0.693-0.285,1.297-1.297,1.297
	c-1.014,0-1.299-0.604-1.299-1.297V8.561L126.842,8.561z M133.223,5.149c0-0.854,0.516-1.297,1.295-1.297
	c0.783,0,1.301,0.442,1.301,1.297v5.897l2.877-3.196c0.267-0.285,0.604-0.498,0.994-0.498c0.588,0,1.228,0.516,1.228,1.173
	c0,0.462-0.16,0.604-0.392,0.853l-1.922,2.008l2.705,3.624c0.086,0.126,0.265,0.41,0.265,0.838c0,0.656-0.533,1.26-1.226,1.26
	c-0.64,0-0.979-0.319-1.173-0.604l-2.452-3.466l-0.904,0.799v1.974c0,0.854-0.518,1.297-1.301,1.297
	c-0.779,0-1.295-0.442-1.295-1.297V5.149z M145.535,7.353c1.973,0,3.963,0.781,3.963,1.973c0,0.604-0.409,1.137-1.084,1.137
	c-1.014,0-1.049-1.189-2.684-1.189c-0.904,0-1.494,0.248-1.494,0.8c0,0.603,0.59,0.746,1.389,0.923l1.082,0.249
	c1.477,0.339,3.234,0.961,3.234,2.772c0,2.112-2.043,3.091-3.998,3.091c-2.346,0-4.299-1.048-4.299-2.326
	c0-0.568,0.318-1.084,1.047-1.084c1.121,0,1.229,1.6,3.146,1.6c0.925,0,1.511-0.408,1.511-0.941c0-0.657-0.568-0.766-1.494-0.996
	l-1.525-0.372c-1.512-0.373-2.684-0.995-2.684-2.737C141.645,8.135,143.74,7.353,145.535,7.353"/>
<path fill="#A9A9A9" d="M73.716,10.468c0-0.88-0.132-1.729-0.375-2.529c0.805-1.056,1.131-2.005,0.727-2.706V5.23
	c-0.407-0.698-1.398-0.892-2.718-0.718c-1.158-1.234-2.666-2.134-4.369-2.532C66.471,0.759,65.81,0,65.002,0
	s-1.47,0.759-1.979,1.984c-1.414,0.328-2.695,1.003-3.753,1.928c-1.624,0.018-2.866,0.511-3.444,1.513
	c-0.606,1.051-0.365,2.45,0.532,3.941c-0.046,0.36-0.07,0.729-0.07,1.102c0,0.883,0.137,1.729,0.383,2.534
	c-0.427,0.553-0.72,1.064-0.84,1.514c-0.111,0.413-0.085,0.778,0.064,1.09c0.011,0.034,0.023,0.065,0.042,0.096
	c0.02,0.033,0.042,0.062,0.065,0.088c0.437,0.624,1.389,0.8,2.648,0.636c1.158,1.233,2.67,2.134,4.374,2.528
	c0.509,1.226,1.17,1.984,1.979,1.984c0.806,0,1.467-0.761,1.976-1.981c1.212-0.284,2.325-0.823,3.285-1.555
	c1.745,0.037,3.085-0.455,3.693-1.506c0,0,0.001,0,0.001-0.003c0.577-0.999,0.387-2.317-0.408-3.73
	C73.657,11.614,73.716,11.047,73.716,10.468 M65.002,0.977c0.255,0,0.542,0.287,0.824,0.819c-0.271-0.025-0.546-0.043-0.824-0.043
	s-0.554,0.017-0.826,0.041C64.458,1.26,64.746,0.977,65.002,0.977 M65.002,19.958c-0.256,0-0.544-0.284-0.826-0.814
	c0.272,0.023,0.547,0.039,0.826,0.039c0.279,0,0.553-0.017,0.824-0.042C65.544,19.67,65.257,19.958,65.002,19.958 M73.221,5.721
	c0,0,0,0.001,0.001,0.002c0.128,0.222,0.025,0.613-0.296,1.125c-0.232-0.506-0.514-0.982-0.834-1.431
	C72.699,5.395,73.093,5.5,73.221,5.721 M72.174,9.228c0.137-0.132,0.265-0.263,0.39-0.393c0.113,0.526,0.175,1.071,0.175,1.632
	c0,0.155-0.007,0.312-0.016,0.465c-0.183-0.233-0.379-0.469-0.59-0.703c0.078-0.168,0.123-0.356,0.123-0.558
	C72.256,9.518,72.225,9.368,72.174,9.228 M72.243,7.743c-0.207,0.236-0.443,0.485-0.71,0.745c-0.187-0.098-0.396-0.159-0.621-0.159
	c-0.224,0-0.431,0.062-0.616,0.157c-0.876-0.716-1.872-1.408-2.972-2.043c-1.109-0.639-2.217-1.161-3.284-1.562
	c-0.022-0.436-0.25-0.817-0.592-1.048c0.093-0.367,0.191-0.699,0.292-0.997c0.411-0.067,0.832-0.104,1.262-0.104
	C68.31,2.731,71.139,4.817,72.243,7.743 M71.716,9.673c0,0.444-0.36,0.805-0.804,0.805c-0.442,0-0.802-0.36-0.802-0.805
	c0-0.44,0.359-0.802,0.802-0.802C71.355,8.871,71.716,9.232,71.716,9.673 M69.646,10.104c-0.982,0.754-2.155,1.544-3.512,2.327
	c-0.935,0.54-1.832,1.003-2.674,1.395c-0.163-0.16-0.368-0.274-0.594-0.336c-0.084-0.927-0.131-1.937-0.131-3.021
	c0-1.568,0.099-2.98,0.26-4.209c0.294-0.064,0.548-0.23,0.735-0.454c0.987,0.375,2.031,0.866,3.104,1.486
	c1.066,0.613,2.006,1.266,2.82,1.929c-0.052,0.143-0.085,0.293-0.085,0.452C69.569,9.824,69.599,9.967,69.646,10.104 M62.521,13.981
	c0.442,0,0.802,0.359,0.802,0.802s-0.36,0.803-0.802,0.803c-0.444,0-0.803-0.359-0.803-0.803
	C61.718,14.342,62.077,13.981,62.521,13.981 M61.899,4.949c0-0.443,0.36-0.803,0.803-0.803c0.443,0,0.803,0.359,0.803,0.803
	s-0.36,0.804-0.803,0.804C62.26,5.753,61.899,5.393,61.899,4.949 M62.634,3.103c-0.049,0.17-0.098,0.345-0.143,0.522
	c-0.36,0.059-0.673,0.259-0.877,0.541c-0.297-0.062-0.59-0.113-0.873-0.152C61.322,3.629,61.958,3.32,62.634,3.103 M56.671,5.915
	c0.269-0.467,0.814-0.785,1.568-0.936c-0.684,0.842-1.215,1.811-1.548,2.867C56.405,7.073,56.389,6.401,56.671,5.915 M56.782,15.212
	c-0.057-0.1-0.061-0.249-0.008-0.442c0.052-0.193,0.162-0.421,0.315-0.668c0.231,0.499,0.501,0.977,0.818,1.419
	C57.303,15.543,56.911,15.435,56.782,15.212 M57.265,10.468c0-2.192,0.919-4.175,2.391-5.584c0.523,0.021,1.1,0.095,1.719,0.222
	c0.051,0.429,0.3,0.796,0.656,1.002c-0.18,1.376-0.271,2.87-0.271,4.361c0,1.057,0.046,2.116,0.138,3.132
	c-0.42,0.224-0.711,0.658-0.718,1.163c-0.812,0.287-1.537,0.488-2.153,0.611C57.926,14.039,57.265,12.328,57.265,10.468
	 M61.525,15.68c0.184,0.204,0.427,0.353,0.703,0.416c0.115,0.621,0.251,1.201,0.405,1.736c-1.059-0.342-2.018-0.901-2.823-1.634
	C60.353,16.067,60.927,15.892,61.525,15.68 M65.002,18.205c-0.43,0-0.851-0.037-1.261-0.104c-0.202-0.593-0.39-1.315-0.546-2.159
	c0.398-0.234,0.669-0.662,0.669-1.157c0-0.021-0.006-0.044-0.007-0.066c0.922-0.429,1.856-0.913,2.766-1.44
	c1.297-0.747,2.55-1.578,3.653-2.424c0.191,0.103,0.405,0.166,0.636,0.166c0.188,0,0.368-0.038,0.53-0.109
	c0.43,0.48,0.788,0.951,1.074,1.403C71.686,15.689,68.632,18.205,65.002,18.205 M73.109,15.404c-0.282,0.49-0.875,0.812-1.693,0.953
	c0.735-0.801,1.324-1.741,1.722-2.772C73.381,14.312,73.378,14.939,73.109,15.404"/>
</svg>
