<?xml version="1.0" encoding="utf-8"?>
<!-- Generator: Adobe Illustrator 16.0.4, SVG Export Plug-In . SVG Version: 6.00 Build 0)  -->
<!DOCTYPE svg PUBLIC "-//W3C//DTD SVG 1.1//EN" "http://www.w3.org/Graphics/SVG/1.1/DTD/svg11.dtd">
<svg version="1.1" id="Layer_1" xmlns="http://www.w3.org/2000/svg" xmlns:xlink="http://www.w3.org/1999/xlink" x="0px" y="0px"
	 width="100px" height="100px" viewBox="0 0 100 100" enable-background="new 0 0 100 100" xml:space="preserve">
<circle fill="#DD4B39" cx="50" cy="50" r="50"/>
<g>
	<path fill="#FFFFFF" d="M52.021,53.925c-0.951-0.409-1.895-0.634-2.836-0.675c-0.655-0.021-1.764-0.082-3.327-0.184
		c-1.565-0.103-2.795-0.164-3.695-0.184c-0.838-0.02-1.651-0.051-2.438-0.094c-0.787-0.039-1.479-0.142-2.07-0.307
		c-0.614-0.143-1.136-0.414-1.565-0.813c-0.43-0.397-0.644-0.975-0.644-1.733c0-0.736,0.255-1.319,0.767-1.747
		c0.511-0.427,1.001-0.725,1.471-0.889h3.71c2.862,0,5.372-0.92,7.529-2.76c2.157-1.84,3.234-4.088,3.234-6.747
		c0-1.021-0.183-2.064-0.551-3.128c-0.367-1.062-0.93-2.034-1.686-2.914v-0.183h7.115v-2.944h-10.55
		c-0.941-0.286-1.867-0.522-2.776-0.705c-0.91-0.183-1.826-0.277-2.744-0.277c-3.333,0-6.068,0.92-8.203,2.761
		c-2.137,1.841-3.206,4.191-3.206,7.053c0,1.902,0.541,3.574,1.625,5.014c1.083,1.442,2.605,2.623,4.569,3.543v0.46
		c-1.553,0.654-2.713,1.437-3.481,2.346c-0.766,0.91-1.149,1.906-1.149,2.99c0,0.859,0.164,1.58,0.491,2.163
		c0.326,0.583,0.756,1.089,1.288,1.519c0.471,0.368,1.032,0.689,1.687,0.965c0.654,0.275,1.288,0.507,1.901,0.689v0.43
		c-2.536,0.104-4.621,0.756-6.256,1.963c-1.635,1.205-2.453,2.851-2.453,4.938c0,2.576,1.136,4.531,3.404,5.872
		c2.269,1.342,5.693,2.011,10.273,2.011c2.8,0,5.152-0.267,7.055-0.799s3.536-1.278,4.906-2.239c1.289-0.941,2.248-2.05,2.885-3.327
		c0.633-1.278,0.951-2.642,0.951-4.094c0-1.453-0.236-2.669-0.705-3.651c-0.471-0.98-1.115-1.859-1.934-2.638
		C53.837,54.896,52.973,54.334,52.021,53.925z M44.907,43.054c-0.951,1.421-2.306,2.131-4.063,2.131
		c-1.574,0-2.857-0.715-3.849-2.147c-0.992-1.43-1.487-3.281-1.487-5.551c0-1,0.087-1.978,0.26-2.929s0.463-1.764,0.874-2.438
		c0.429-0.736,0.987-1.304,1.671-1.703c0.684-0.398,1.507-0.599,2.468-0.599c1.757,0,3.123,0.712,4.094,2.132
		c0.97,1.421,1.458,3.327,1.458,5.719C46.334,39.837,45.858,41.632,44.907,43.054z M49.63,68.293
		c-1.728,1.157-4.095,1.733-7.1,1.733c-1.738,0-3.209-0.169-4.417-0.505c-1.206-0.337-2.167-0.771-2.882-1.306
		c-0.756-0.55-1.288-1.154-1.595-1.81c-0.306-0.653-0.46-1.338-0.46-2.055c0-1.594,0.465-2.896,1.396-3.909
		c0.929-1.013,2.499-1.734,4.708-2.163c2.35,0,4.417,0.051,6.194,0.153c1.779,0.104,2.954,0.194,3.527,0.275
		c1.083,0.265,1.891,0.767,2.424,1.504c0.532,0.737,0.797,1.675,0.797,2.82C52.221,65.384,51.358,67.139,49.63,68.293z"/>
	<path fill="#FFFFFF" d="M63.913,37.646v5.996h2.341v-5.996h5.968v-2.301h-5.968v-6.01h-2.341v6.01h-5.969v2.301H63.913
		L63.913,37.646z"/>
</g>
</svg>
