<?xml version="1.0" encoding="utf-8"?>
<!-- Generator: Adobe Illustrator 16.0.4, SVG Export Plug-In . SVG Version: 6.00 Build 0)  -->
<!DOCTYPE svg PUBLIC "-//W3C//DTD SVG 1.1//EN" "http://www.w3.org/Graphics/SVG/1.1/DTD/svg11.dtd">
<svg version="1.1" id="Layer_1" xmlns="http://www.w3.org/2000/svg" xmlns:xlink="http://www.w3.org/1999/xlink" x="0px" y="0px"
	 width="100px" height="100px" viewBox="0 0 100 100" enable-background="new 0 0 100 100" xml:space="preserve">
<circle fill="#00ACED" cx="49.709" cy="50.046" r="50"/>
<path fill="#FFFFFF" d="M75.593,33.988c-1.903,0.845-3.949,1.416-6.099,1.673c2.194-1.314,3.875-3.396,4.669-5.875
	c-2.05,1.217-4.323,2.102-6.745,2.578c-1.937-2.064-4.697-3.353-7.752-3.353c-5.863,0-10.618,4.753-10.618,10.62
	c0,0.832,0.093,1.642,0.273,2.421c-8.826-0.444-16.651-4.671-21.889-11.096c-0.915,1.569-1.438,3.393-1.438,5.339
	c0,3.684,1.875,6.935,4.725,8.838c-1.741-0.054-3.378-0.532-4.811-1.328c0,0.044,0,0.088,0,0.134c0,5.146,3.66,9.437,8.519,10.412
	c-0.893,0.245-1.83,0.373-2.798,0.373c-0.685,0-1.35-0.064-2-0.188c1.352,4.218,5.273,7.288,9.919,7.375
	c-3.634,2.849-8.214,4.547-13.188,4.547c-0.857,0-1.703-0.051-2.535-0.151c4.701,3.015,10.281,4.774,16.279,4.774
	c19.533,0,30.216-16.183,30.216-30.216c0-0.461-0.011-0.918-0.033-1.374C72.368,37.988,74.171,36.118,75.593,33.988z"/>
</svg>
