<?xml version="1.0" encoding="utf-8"?>
<!-- Generator: Adobe Illustrator 16.0.4, SVG Export Plug-In . SVG Version: 6.00 Build 0)  -->
<!DOCTYPE svg PUBLIC "-//W3C//DTD SVG 1.1//EN" "http://www.w3.org/Graphics/SVG/1.1/DTD/svg11.dtd">
<svg version="1.1" id="Layer_1" xmlns="http://www.w3.org/2000/svg" xmlns:xlink="http://www.w3.org/1999/xlink" x="0px" y="0px"
	 width="100px" height="100px" viewBox="0 0 100 100" enable-background="new 0 0 100 100" xml:space="preserve">
<g>
	<path fill="#006699" d="M49.798,0.042c-27.614,0-50,22.386-50,50c0,27.614,22.386,50,50,50s50-22.386,50-50
		C99.798,22.428,77.412,0.042,49.798,0.042z M35,75H24V41h11V75z M29.882,37h-0.073c-3.77,0-6.207-2.755-6.207-5.999
		c0-3.315,2.511-5.906,6.353-5.906c3.842,0,6.208,2.637,6.28,5.952C36.236,34.291,33.798,37,29.882,37z M76,75H65V57.004
		c0-4.542-1.734-7.64-5.799-7.64c-3.102,0-5.001,2.089-5.812,4.108c-0.297,0.722-0.39,1.73-0.39,2.74V75H41.712c0,0,0.147-30,0-34
		H53v5.077c1-2.303,4.138-5.578,10.096-5.578c7.39,0,12.904,4.829,12.904,15.207V75z"/>
	<rect x="24" y="41" fill="#FFFFFF" width="11" height="34"/>
	<path fill="#FFFFFF" d="M29.956,25.003c-3.842,0-6.353,2.683-6.353,5.998c0,3.243,2.437,5.999,6.207,5.999h0.073
		c3.916,0,6.354-2.755,6.354-5.999C36.163,27.687,33.798,25.003,29.956,25.003z"/>
	<path fill="#FFFFFF" d="M63.096,40.499c-5.958,0-9.096,3.275-10.096,5.578V41H41.712c0.147,4,0,34,0,34H53V56.212
		c0-1.01,0.044-2.019,0.341-2.74c0.811-2.019,2.764-4.108,5.866-4.108c4.063,0,5.793,3.098,5.793,7.64V75h11V55.706
		C76,45.328,70.485,40.499,63.096,40.499z"/>
</g>
</svg>
