<?xml version="1.0" encoding="utf-8"?>
<!-- Generator: Adobe Illustrator 16.0.4, SVG Export Plug-In . SVG Version: 6.00 Build 0)  -->
<!DOCTYPE svg PUBLIC "-//W3C//DTD SVG 1.1//EN" "http://www.w3.org/Graphics/SVG/1.1/DTD/svg11.dtd">
<svg version="1.1" id="Layer_1" xmlns="http://www.w3.org/2000/svg" xmlns:xlink="http://www.w3.org/1999/xlink" x="0px" y="0px"
	 width="100px" height="100px" viewBox="0 0 100 100" enable-background="new 0 0 100 100" xml:space="preserve">
<circle fill="#3B5998" cx="50" cy="50.001" r="50"/>
<path fill="#FFFFFF" d="M62.021,24.41c0,0-4.923,0-8.189,0c-4.863,0-10.269,2.039-10.269,9.078c0.025,2.45,0,4.799,0,7.441H37.94
	v8.936h5.798v25.727h10.653V49.694h7.032l0.637-8.79h-7.854c0,0,0.021-3.912,0-5.047c0-2.779,2.9-2.621,3.07-2.621
	c1.385,0,4.062,0.004,4.752,0v-8.827L62.021,24.41L62.021,24.41z"/>
</svg>
