<?xml version="1.0" encoding="utf-8"?>
<!-- Generator: Adobe Illustrator 16.0.4, SVG Export Plug-In . SVG Version: 6.00 Build 0)  -->
<!DOCTYPE svg PUBLIC "-//W3C//DTD SVG 1.1//EN" "http://www.w3.org/Graphics/SVG/1.1/DTD/svg11.dtd">
<svg version="1.1" id="Layer_1" xmlns="http://www.w3.org/2000/svg" xmlns:xlink="http://www.w3.org/1999/xlink" x="0px" y="0px"
	 width="100px" height="100px" viewBox="0 0 100 100" enable-background="new 0 0 100 100" xml:space="preserve">
<circle fill="#BB0000" cx="50" cy="50.055" r="50"/>
<g>
	<path fill="#FFFFFF" d="M79.272,35.43c-1.209-5.395-6.51-6.284-6.51-6.284C50.535,27.193,27.563,29,27.563,29h-0.302
		c0,0-5.301,1-6.51,6h-0.023c0,0-2.511,14,0,30h0.023c0,0,0.558,4,6.51,6h0.302c0,0,22.972,1.822,45.2-0.131
		c5.952-1.891,6.51-6.125,6.51-6.125C81.784,49.445,79.272,35.43,79.272,35.43z M43.614,58.616V41.45l16.052,8.427L43.614,58.616z"
		/>
</g>
</svg>
