<?xml version="1.0" encoding="utf-8"?>
<!-- Generator: Adobe Illustrator 19.2.1, SVG Export Plug-In . SVG Version: 6.00 Build 0)  -->
<svg version="1.1" id="Layer_1" xmlns="http://www.w3.org/2000/svg" xmlns:xlink="http://www.w3.org/1999/xlink" x="0px" y="0px"
	 viewBox="0 0 100 100" style="enable-background:new 0 0 100 100;" xml:space="preserve">
<style type="text/css">
	.st0{fill:#DE6D1D;}
	.st1{fill:#FFFFFF;}
</style>
<circle class="st0" cx="50" cy="50.1" r="50"/>
<path class="st1" d="M28.9,66.8c0-1.8,0.6-3.4,1.9-4.7c1.3-1.3,2.8-1.9,4.7-1.9s3.4,0.6,4.7,1.9c1.3,1.3,1.9,2.8,1.9,4.7
	c0,1.8-0.6,3.4-1.9,4.7c-1.3,1.3-2.8,1.9-4.7,1.9s-3.4-0.6-4.7-1.9C29.6,70.1,28.9,68.6,28.9,66.8z M28.9,50.2v-9.5
	c5.9,0,11.4,1.5,16.4,4.4s9,6.9,11.9,11.9c2.9,5,4.4,10.5,4.4,16.4h-9.5c0-6.4-2.3-11.9-6.8-16.4C40.7,52.5,35.3,50.2,28.9,50.2z
	 M28.9,33.4v-9.5c6.7,0,13.1,1.3,19.2,3.9S59.5,34,63.9,38.4s7.9,9.7,10.6,15.8c2.6,6.1,3.9,12.5,3.9,19.2h-9.5
	c0-5.4-1.1-10.6-3.2-15.5c-2.1-4.9-5-9.2-8.5-12.8c-3.6-3.6-7.8-6.4-12.8-8.5C39.5,34.5,34.3,33.4,28.9,33.4z"/>
</svg>
