<?xml version="1.0" encoding="utf-8"?>
<!-- Generator: Adobe Illustrator 16.0.4, SVG Export Plug-In . SVG Version: 6.00 Build 0)  -->
<!DOCTYPE svg PUBLIC "-//W3C//DTD SVG 1.1//EN" "http://www.w3.org/Graphics/SVG/1.1/DTD/svg11.dtd">
<svg version="1.1" id="Layer_1" xmlns="http://www.w3.org/2000/svg" xmlns:xlink="http://www.w3.org/1999/xlink" x="0px" y="0px"
	 width="100px" height="100px" viewBox="-25 -25 100 100" enable-background="new -25 -25 100 100" xml:space="preserve">
<path fill="#181616" d="M24.997-24.382C-2.612-24.382-25-1.998-25,25.618c0,22.089,14.325,40.833,34.197,47.446
	c2.5,0.453,3.415-1.086,3.415-2.41c0-1.189-0.044-4.336-0.069-8.508C-1.366,65.17-4.3,55.441-4.3,55.441
	c-2.276-5.775-5.552-7.312-5.552-7.312c-4.542-3.102,0.342-3.041,0.342-3.041c5.02,0.354,7.66,5.156,7.66,5.156
	c4.46,7.637,11.703,5.43,14.55,4.152c0.456-3.23,1.746-5.438,3.176-6.684C4.772,46.447-6.902,42.162-6.902,23
	c0-5.458,1.95-9.922,5.148-13.417C-2.27,8.32-3.984,3.236-1.266-3.648c0,0,4.199-1.345,13.75,5.126
	c3.988-1.11,8.266-1.664,12.52-1.685c4.247,0.021,8.524,0.574,12.52,1.685c9.545-6.471,13.734-5.126,13.734-5.126
	c2.729,6.884,1.01,11.968,0.498,13.232c3.201,3.496,5.135,7.958,5.135,13.417c0,19.208-11.688,23.435-22.826,24.669
	c1.795,1.545,3.393,4.598,3.393,9.262c0,6.688-0.059,12.074-0.059,13.719c0,1.336,0.898,2.889,3.438,2.4
	C60.688,66.432,75,47.705,75,25.618C75-1.998,52.614-24.382,24.997-24.382z"/>
</svg>
