<?xml version="1.0" encoding="utf-8"?>
<!-- Generator: Adobe Illustrator 16.0.4, SVG Export Plug-In . SVG Version: 6.00 Build 0)  -->
<!DOCTYPE svg PUBLIC "-//W3C//DTD SVG 1.1//EN" "http://www.w3.org/Graphics/SVG/1.1/DTD/svg11.dtd">
<svg version="1.1" id="Layer_1" xmlns="http://www.w3.org/2000/svg" xmlns:xlink="http://www.w3.org/1999/xlink" x="0px" y="0px"
	 width="48px" height="48px" viewBox="0 0 48 48" enable-background="new 0 0 48 48" xml:space="preserve">
<path fill="#FF0000" d="M41.271,27.214L36,24.051c0-0.017,0-0.034,0-0.051c0-6.006-1.022-11.7-2.879-16.031
	C30.149,1.035,26.131,0,24,0c-2.131,0-6.15,1.035-9.122,7.969C13.022,12.3,12,17.994,12,24c0,0.017,0.001,0.034,0.001,0.051
	l-5.273,3.163C6.276,27.484,6,27.973,6,28.5v6C6,35.328,6.672,36,7.5,36h5.996c0.078,0.289,0.159,0.577,0.243,0.859
	C14.119,38.13,15.288,39,16.613,39h1.294l-1.318,5.271c-0.224,0.896-0.023,1.846,0.546,2.575C17.704,47.574,18.576,48,19.5,48h9
	c0.924,0,1.796-0.426,2.364-1.153c0.568-0.729,0.771-1.679,0.546-2.575L30.092,39h1.294c1.325,0,2.495-0.87,2.875-2.141
	c0.084-0.282,0.165-0.57,0.243-0.859H40.5c0.828,0,1.5-0.672,1.5-1.5v-6C42,27.973,41.723,27.484,41.271,27.214z M24,3
	c1.439,0,2.801,0.791,4.009,2.194C26.893,5.713,25.479,6,24,6c-1.48,0-2.894-0.287-4.009-0.806C21.198,3.791,22.56,3,24,3z
	 M19.076,6.421l0.1,0.049C20.515,7.135,22.228,7.5,24,7.5c1.771,0,3.484-0.365,4.824-1.03l0.1-0.049C31.379,10.171,33,16.644,33,24
	c0,2.644-0.211,5.171-0.594,7.5H15.593C15.211,29.171,15,26.644,15,24C15,16.644,16.622,10.171,19.076,6.421z M7.5,34.5v-6
	l4.531-2.719c0.104,3.055,0.474,6.009,1.092,8.719H7.5z M28.5,45h-9l1.5-6h6L28.5,45z M16.613,36c-0.282-0.945-0.531-1.949-0.745-3
	h16.263c-0.213,1.051-0.463,2.055-0.745,3H16.613z M40.5,34.5h-5.622c0.616-2.71,0.987-5.664,1.091-8.719L40.5,28.5V34.5z"/>
</svg>
