<?xml version="1.0" encoding="utf-8"?>
<!-- Generator: Adobe Illustrator 16.0.4, SVG Export Plug-In . SVG Version: 6.00 Build 0)  -->
<!DOCTYPE svg PUBLIC "-//W3C//DTD SVG 1.1//EN" "http://www.w3.org/Graphics/SVG/1.1/DTD/svg11.dtd">
<svg version="1.1" id="Layer_1" xmlns="http://www.w3.org/2000/svg" xmlns:xlink="http://www.w3.org/1999/xlink" x="0px" y="0px"
	 width="72.75px" height="36px" viewBox="27.25 32.5 72.75 36" enable-background="new 27.25 32.5 72.75 36" xml:space="preserve">
<g>
	<path fill="none" d="M64.225,45.527c-6.372,0-11.982-1.606-15.277-4.042v22.406c4.552-0.136,9.605-0.213,14.933-0.213
		s10.38,0.077,14.934,0.213V41.958C75.457,44.126,70.173,45.527,64.225,45.527z"/>
	<path d="M48.948,41.485c3.294,2.437,8.905,4.042,15.277,4.042c5.948,0,11.232-1.401,14.59-3.569v21.933
		c1.926,0.058,3.764,0.126,5.492,0.204V41.069h1.717h1.372h2.061h1.373h1.029v-2.742h-1.029v-2.742h-1.373v2.742h-2.061v-2.742
		h-1.372v2.742h-1.717v-3.085c0-1.514-1.23-2.742-2.746-2.742s-2.745,1.228-2.745,2.742v3.085h-1.718v-2.742h-1.371v2.742h-2.062
		v-2.742h-1.373v2.742h-1.031v2.742h1.031h1.373h2.062h1.371h0.248c-3.334,1.688-7.973,2.742-13.121,2.742
		c-5.149,0-9.787-1.053-13.12-2.742h0.933h2.062h1.373h1.031v-2.742h-1.031v-2.742h-1.373v2.742H52.04v-2.742h-1.374v2.742h-1.717
		v-3.085c0-1.514-1.229-2.742-2.745-2.742c-1.516,0-2.746,1.228-2.746,2.742v3.085h-1.717v-2.742h-1.374v2.742h-2.06v-2.742h-1.374
		v2.742h-1.029v2.742h1.029h1.374h2.059h0.933c-0.004,0.002-0.009,0.003-0.013,0.006h2.171v0.41v3.178v19.432
		c1.727-0.078,3.564-0.146,5.491-0.204V41.485z"/>
	<path d="M84.307,64.095c-1.729-0.078-3.566-0.146-5.492-0.204c-4.554-0.136-9.605-0.213-14.934-0.213S53.5,63.755,48.948,63.891
		c-1.927,0.058-3.764,0.126-5.491,0.204c-9.477,0.429-15.695,1.147-15.695,1.962c0,1.313,16.171,2.378,36.119,2.378
		C83.83,68.435,100,67.37,100,66.057C100,65.242,93.782,64.523,84.307,64.095z"/>
</g>
</svg>
