<?xml version="1.0" encoding="utf-8"?>
<!-- Generator: Adobe Illustrator 16.0.4, SVG Export Plug-In . SVG Version: 6.00 Build 0)  -->
<!DOCTYPE svg PUBLIC "-//W3C//DTD SVG 1.1//EN" "http://www.w3.org/Graphics/SVG/1.1/DTD/svg11.dtd">
<svg version="1.1" id="Layer_1" xmlns="http://www.w3.org/2000/svg" xmlns:xlink="http://www.w3.org/1999/xlink" x="0px" y="0px"
	 width="50.375px" height="24.5px" viewBox="49.625 35.25 50.375 24.5" enable-background="new 49.625 35.25 50.375 24.5"
	 xml:space="preserve">
<path fill="#231F20" d="M97.246,58.398H83.467c-1.52,0-2.756-1.236-2.756-2.756V41.864c0-1.521,1.236-2.756,2.756-2.756h6.891
	c0.381,0,0.688,0.309,0.688,0.689s-0.309,0.688-0.688,0.688h-6.891c-0.76,0-1.377,0.618-1.377,1.378v13.778
	c0,0.76,0.617,1.379,1.377,1.379h13.779c0.76,0,1.377-0.619,1.377-1.379v-6.89c0-0.379,0.311-0.688,0.689-0.688
	c0.381,0,0.688,0.31,0.688,0.688v6.89C100.002,57.162,98.766,58.398,97.246,58.398z M61.439,52.999
	c-0.246,0.345-0.639,0.558-1.061,0.575c-0.021,0.001-0.041,0.001-0.062,0.001c-0.4,0-0.783-0.175-1.045-0.479l-4.137-4.823
	c-0.492-0.577-0.426-1.447,0.15-1.942c0.578-0.495,1.447-0.429,1.943,0.148l2.988,3.487l9.312-13.035
	c0.441-0.619,1.303-0.763,1.922-0.32c0.619,0.443,0.762,1.303,0.32,1.922L61.439,52.999z M59.627,40.486h-6.889
	c-0.76,0-1.377,0.618-1.377,1.378v13.778c0,0.76,0.617,1.377,1.377,1.377h13.779c0.76,0,1.377-0.617,1.377-1.377v-6.891
	c0-0.379,0.309-0.688,0.688-0.688c0.383,0,0.689,0.31,0.689,0.688v6.891c0,1.52-1.236,2.756-2.756,2.756H52.738
	c-1.52,0-2.756-1.236-2.756-2.756V41.864c0-1.521,1.236-2.756,2.756-2.756h6.889c0.383,0,0.689,0.309,0.689,0.689
	C60.316,40.178,60.01,40.486,59.627,40.486z"/>
</svg>
