<?xml version="1.0" encoding="utf-8"?>
<!-- Generator: Adobe Illustrator 16.0.4, SVG Export Plug-In . SVG Version: 6.00 Build 0)  -->
<!DOCTYPE svg PUBLIC "-//W3C//DTD SVG 1.1//EN" "http://www.w3.org/Graphics/SVG/1.1/DTD/svg11.dtd">
<svg version="1.1" id="Layer_1" xmlns="http://www.w3.org/2000/svg" xmlns:xlink="http://www.w3.org/1999/xlink" x="0px" y="0px"
	 width="100px" height="100px" viewBox="0 0 100 100" enable-background="new 0 0 100 100" xml:space="preserve">
<path d="M50,6.25c11.686,0,22.673,4.551,30.936,12.814C89.199,27.328,93.75,38.314,93.75,50c0,11.686-4.551,22.673-12.814,30.936
	C72.673,89.199,61.686,93.75,50,93.75c-11.686,0-22.672-4.551-30.936-12.814C10.801,72.673,6.25,61.686,6.25,50
	c0-11.686,4.551-22.672,12.814-30.936C27.328,10.801,38.314,6.25,50,6.25 M50,0C22.385,0,0,22.386,0,50s22.385,50,50,50
	c27.614,0,50-22.386,50-50S77.614,0,50,0L50,0z M61.048,61.049c1.34-1.341,2.838-3.904,4.359-7.088L81.25,50l-12.757-3.189
	c4.289-10.784,8.023-23.328,8.023-23.328s-12.544,3.734-23.327,8.023L50,18.75l-3.96,15.843c-3.185,1.521-5.748,3.019-7.088,4.359
	c-1.582,1.582-2.75,3.419-3.512,5.378c-0.281,0.546-0.563,1.116-0.847,1.709L18.75,50l12.757,3.189
	c-4.29,10.783-8.024,23.327-8.024,23.327s12.544-3.734,23.328-8.023L50,81.25l3.96-15.843c0.595-0.284,1.164-0.566,1.711-0.848
	C57.629,63.798,59.467,62.631,61.048,61.049z M28.224,71.775c1.827-5.691,4.098-12.208,6.347-17.82l0.336,0.084
	c0.685,2.567,2.03,4.996,4.044,7.01c2.014,2.014,4.442,3.358,7.009,4.043l0.084,0.336C40.433,67.677,33.916,69.948,28.224,71.775z
	 M40.624,49.999c0-5.177,4.198-9.375,9.375-9.374c5.179-0.001,9.377,4.197,9.375,9.375c0.002,5.178-4.196,9.375-9.374,9.375
	C44.822,59.375,40.624,55.179,40.624,49.999z"/>
</svg>
