<?xml version="1.0" encoding="utf-8"?>
<!-- Generator: Adobe Illustrator 19.2.1, SVG Export Plug-In . SVG Version: 6.00 Build 0)  -->
<svg version="1.1" id="Layer_1" xmlns="http://www.w3.org/2000/svg" xmlns:xlink="http://www.w3.org/1999/xlink" x="0px" y="0px"
	 viewBox="0 0 100 70" style="enable-background:new 0 0 100 70;" xml:space="preserve">
<style type="text/css">
	.st0{fill:#0282F9;}
</style>
<path class="st0" d="M68.6,49h9.3v14c0,2.6-2.1,4.7-4.7,4.7H17.4c-2.6,0-4.7-2.1-4.7-4.7V16.4c0-2.6,2.1-4.7,4.7-4.7H36V21h-14v37.3
	h46.6V49z M86.6,21.7L67.9,3.1c-0.4-0.4-1-0.7-1.6-0.7c-0.3,0-0.6,0.1-0.9,0.2C64.5,2.9,64,3.8,64,4.7V14C48.5,14,36,28.6,36,46.6
	c4.7-5.4,12.5-14,27.9-14V42c0,0.9,0.6,1.8,1.4,2.2c0.3,0.1,0.6,0.2,0.9,0.2c0.6,0,1.2-0.2,1.6-0.7L86.6,25
	C87.5,24.1,87.5,22.6,86.6,21.7z"/>
</svg>
