<?xml version="1.0" encoding="utf-8"?>
<!-- Generator: Adobe Illustrator 19.2.1, SVG Export Plug-In . SVG Version: 6.00 Build 0)  -->
<svg version="1.1" id="Layer_1" xmlns="http://www.w3.org/2000/svg" xmlns:xlink="http://www.w3.org/1999/xlink" x="0px" y="0px"
	 viewBox="0 0 100 70" style="enable-background:new 0 0 100 70;" xml:space="preserve">
<style type="text/css">
	.st0{fill:#0282F9;}
</style>
<path class="st0" d="M78.6,6.5v57.1c0,2.3-1.8,4.1-4.1,4.1h-49c-2.3,0-4.1-1.8-4.1-4.1V6.5c0-2.3,1.8-4.1,4.1-4.1h48.9
	C76.7,2.4,78.6,4.2,78.6,6.5z M49.9,65.6c2.3,0,4.1-1.8,4.1-4.1s-1.8-4.1-4.1-4.1s-4.1,1.8-4.1,4.1S47.8,65.6,49.9,65.6z M70.3,10.6
	H29.6v44.8h40.8L70.3,10.6L70.3,10.6z"/>
</svg>
