<?xml version="1.0" encoding="utf-8"?>
<!-- Generator: Adobe Illustrator 19.2.1, SVG Export Plug-In . SVG Version: 6.00 Build 0)  -->
<svg version="1.1" id="Layer_1" xmlns="http://www.w3.org/2000/svg" xmlns:xlink="http://www.w3.org/1999/xlink" x="0px" y="0px"
	 viewBox="0 0 100 70" style="enable-background:new 0 0 100 70;" xml:space="preserve">
<style type="text/css">
	.st0{fill:#0282F9;}
</style>
<g>
	<path class="st0" d="M88.4,50.1h-5L68,37.2c3.6-5.8,8-13.8,8-18.4C76,10.6,69.4,4,61.2,4c-4,0-7.7,1.5-10.5,4.3s-4.3,6.5-4.3,10.5
		c0,4.5,4,12,7.6,17.7L40.3,47.6L23.1,27.5C24,27,24.5,26,24.5,25V14.9c0-1.6-1.3-3-3-3h-10c-1.6,0-3,1.3-3,3V25c0,1.6,1.3,3,3,3
		h4.2l21.9,25.7c0.6,0.7,1.4,1,2.3,1c0.7,0,1.3-0.2,1.9-0.7l15.5-12.5c0.7,1,1.3,1.8,1.6,2.3c0.6,0.8,1.5,1.3,2.4,1.3
		c1,0,1.9-0.5,2.4-1.3c0.3-0.4,0.6-0.9,1.1-1.6l11,9.2c-0.3,0.5-0.5,1-0.5,1.7v10.1c0,1.6,1.3,3,3,3h10.1c1.6,0,3-1.3,3-3V53
		C91.3,51.4,90,50.1,88.4,50.1z M21,24.3h-8.9v-8.9H21V24.3z M61.2,36.8c-4.3-6.5-8.9-14.8-8.9-18c0-2.4,0.9-4.6,2.6-6.3
		c1.7-1.7,3.9-2.6,6.3-2.6c4.9,0,8.9,4,8.9,8.9C70.1,22,65.5,30.3,61.2,36.8z M87.8,62.5h-8.9v-8.9h8.9V62.5z"/>
	<path class="st0" d="M88.4,67.6H78.3c-2.5,0-4.6-2-4.6-4.6V53c0-0.4,0.1-0.8,0.2-1.2l-8.8-7.3L65,44.7c-1.7,2.4-5.7,2.4-7.4,0
		c-0.2-0.2-0.4-0.5-0.6-0.9L42.7,55.3c-1.8,1.5-4.8,1.2-6.3-0.6L15,29.5h-3.4c-2.5,0-4.6-2-4.6-4.6v-10c0-2.5,2-4.6,4.6-4.6h10
		c2.5,0,4.6,2,4.6,4.6V25c0,1-0.3,1.9-0.8,2.6l15.1,17.8l11.4-9.3c-4.7-7.8-7.1-13.6-7.1-17.3c0-4.4,1.7-8.5,4.8-11.6
		s7.3-4.8,11.6-4.8c9.1,0,16.4,7.4,16.4,16.4c0,3.8-2.5,9.9-7.5,18.1L84,48.5h4.4c2.5,0,4.6,2,4.6,4.6v10.1
		C92.9,65.6,90.9,67.6,88.4,67.6z M77.3,64.1c0.2,0.2,0.6,0.4,1,0.4h10.1c0.4,0,0.7-0.1,1-0.4H77.3z M64.5,39.9L78,51.1l-0.8,1.2
		C77,52.5,77,52.8,77,53.1v10.1c0,0.4,0.1,0.7,0.4,1v-12h12c-0.2-0.2-0.6-0.4-1-0.4h-5.5L66,37.5l0.7-1.2c5-8,7.8-14.2,7.8-17.6
		c0-7.3-5.9-13.2-13.2-13.2c-3.5,0-6.8,1.4-9.3,3.9s-3.9,5.8-3.9,9.3c0,3.2,2.6,9.2,7.3,16.9l0.7,1.2l-16,13L20.7,27.1l1.6-1
		c0.1-0.1,0.2-0.1,0.2-0.2H10.6c0.2,0.2,0.6,0.4,1,0.4h4.9l22.4,26.3c0.4,0.5,1,0.9,1.9,0.2l16.8-13.6l1,1.4c0.7,1,1.2,1.8,1.6,2.3
		c0.5,0.7,1.7,0.7,2.3,0L64.5,39.9z M89.4,52.1v12c0.2-0.2,0.4-0.6,0.4-1V53C89.7,52.7,89.6,52.3,89.4,52.1z M80.5,60.9h5.7v-5.7
		h-5.7V60.9z M22.6,13.9v12c0.2-0.3,0.4-0.6,0.4-1v-10C23,14.5,22.8,14.2,22.6,13.9z M10.5,13.9c-0.2,0.2-0.4,0.6-0.4,1V25
		c0,0.4,0.1,0.7,0.4,1V13.9z M13.7,22.7h5.7V17h-5.7V22.7z M10.6,13.9h12c-0.2-0.2-0.6-0.4-1-0.4H11.5
		C11.2,13.5,10.8,13.6,10.6,13.9z M61.2,39.7l-1.3-2c-2.1-3.3-9.1-14.3-9.1-18.9c0-2.8,1.1-5.4,3.1-7.4s4.6-3.1,7.4-3.1
		c5.8,0,10.5,4.7,10.5,10.5c0,4.6-7,15.6-9.1,18.9L61.2,39.7z M61.2,11.5c-1.9,0-3.8,0.8-5.2,2.1c-1.4,1.4-2.1,3.2-2.1,5.2
		c0,2.1,2.9,8.2,7.3,15.1c4.4-6.9,7.3-12.9,7.3-15.1C68.5,14.8,65.3,11.5,61.2,11.5z"/>
</g>
</svg>
