<?xml version="1.0" encoding="utf-8"?>
<!-- Generator: Adobe Illustrator 19.2.1, SVG Export Plug-In . SVG Version: 6.00 Build 0)  -->
<svg version="1.1" id="Layer_1" xmlns="http://www.w3.org/2000/svg" xmlns:xlink="http://www.w3.org/1999/xlink" x="0px" y="0px"
	 viewBox="0 0 100 70" style="enable-background:new 0 0 100 70;" xml:space="preserve">
<style type="text/css">
	.st0{fill:#0282F9;}
</style>
<path class="st0" d="M77.9,11.7h-9.3c0,0,0,0,0,0c0-5.1-4.2-9.3-9.3-9.3H40.7c-5.1,0-9.3,4.2-9.3,9.3l0,0h-9.3
	c-5.1,0-9.3,4.2-9.3,9.3v37.3c0,5.1,4.2,9.3,9.3,9.3h55.9c5.1,0,9.3-4.2,9.3-9.3V21C87.3,15.9,83.1,11.7,77.9,11.7z M45.3,58.3
	c-10.3,0-18.6-8.3-18.6-18.6S35.1,21,45.3,21S64,29.4,64,39.7S55.6,58.3,45.3,58.3z M64,14H36v-2.3c0-2.6,2.1-4.7,4.7-4.7h18.6
	c2.6,0,4.7,2.1,4.7,4.7V14z M72.1,32.7c-3.2,0-5.8-2.6-5.8-5.8s2.6-5.8,5.8-5.8c3.2,0,5.8,2.6,5.8,5.8S75.3,32.7,72.1,32.7z"/>
</svg>
