<?xml version="1.0" encoding="utf-8"?>
<!-- Generator: Adobe Illustrator 19.2.1, SVG Export Plug-In . SVG Version: 6.00 Build 0)  -->
<svg version="1.1" id="Layer_1" xmlns="http://www.w3.org/2000/svg" xmlns:xlink="http://www.w3.org/1999/xlink" x="0px" y="0px"
	 viewBox="0 0 100 70" style="enable-background:new 0 0 100 70;" xml:space="preserve">
<style type="text/css">
	.st0{fill:#0282F9;}
</style>
<path class="st0" d="M70.4,30.9h-4.1V18.7c0-9-7.3-16.3-16.3-16.3c-9,0-16.3,7.3-16.3,16.3v12.2h-4.1c-2.3,0-4.1,1.8-4.1,4.1v28.5
	c0,2.3,1.8,4.1,4.1,4.1h40.8c2.3,0,4.1-1.8,4.1-4.1V35C74.5,32.7,72.6,30.9,70.4,30.9z M41.8,18.7c0-4.5,3.7-8.2,8.2-8.2
	c4.5,0,8.2,3.7,8.2,8.2v12.2H41.8V18.7z"/>
</svg>
