<?xml version="1.0" encoding="utf-8"?>
<!-- Generator: Adobe Illustrator 16.0.4, SVG Export Plug-In . SVG Version: 6.00 Build 0)  -->
<!DOCTYPE svg PUBLIC "-//W3C//DTD SVG 1.1//EN" "http://www.w3.org/Graphics/SVG/1.1/DTD/svg11.dtd">
<svg version="1.1" id="Layer_1" xmlns="http://www.w3.org/2000/svg" xmlns:xlink="http://www.w3.org/1999/xlink" x="0px" y="0px"
	 width="610px" height="169.667px" viewBox="0 0 610 169.667" enable-background="new 0 0 610 169.667" xml:space="preserve">
<path fill="none" d="M476.188,65.576c-2.309-1.42-15.449,18.292-27.703,41.022c-1.158,2.059-2.221,4.119-3.191,6.18v1.449
	C468.834,94.562,478.463,66.976,476.188,65.576z"/>
<path fill="none" d="M582.375,115.121c5.684-7.457,9.59-16.691,7.104-18.646c-3.729-3.018-18.469,7.637-26.814,24.508
	c-0.533,1.064-1.066,2.131-1.422,3.018C569.946,129.506,577.225,121.869,582.375,115.121z"/>
<g>
	<polygon fill="#FFFFFF" points="83.422,9.832 55.667,41.992 112.067,41.992 	"/>
	<path fill="#FFFFFF" d="M14.601,36.49v10.736H8.2v18.17h6.401v95.18h20.853v-95.18h12.594v-18.17H35.454v-9.497
		c0-3.923,1.858-5.781,5.781-5.781h7.433V13.986H37.106C22.034,13.986,14.601,21.417,14.601,36.49z"/>
	<path fill="#FFFFFF" d="M93.885,139.311c-3.716,2.271-7.226,3.51-11.149,3.51c-4.542,0-6.813-2.064-6.813-6.607V47.226H55.069
		v95.182c0,12.594,6.194,19.408,18.375,19.408h0.826c8.672,0,14.659-3.924,19.821-8.672v7.432h20.646V47.226H93.885V139.311z"/>
	<rect x="127.127" y="13.986" fill="#FFFFFF" width="20.853" height="146.59"/>
	<path fill="#FFFFFF" d="M198.77,135.389c0,5.16-2.479,7.639-7.64,7.639h-2.684c-4.955,0-7.433-2.479-7.433-7.639V72.416
		c0-5.163,2.478-7.64,7.433-7.64h2.478c5.162,0,7.639,2.478,7.639,7.64v19.201h20.44V70.97c0-16.725-8.465-24.982-24.982-24.982
		h-8.671c-16.724,0-25.189,8.465-25.189,25.189v65.45c0,16.723,8.465,25.189,25.189,25.189h8.671
		c16.724,0,25.188-8.467,25.188-25.189v-24.156H198.77V135.389z"/>
	<path fill="#FFFFFF" d="M251.007,59.408V47.226H230.36v113.35h20.854v-84.65c4.336-3.924,9.704-5.988,17.343-6.608V46.195
		C260.298,46.195,255.756,50.324,251.007,59.408z"/>
	<path fill="#FFFFFF" d="M315.424,139.311c-3.717,2.271-7.227,3.51-11.15,3.51c-4.541,0-6.812-2.064-6.812-6.607V47.226h-20.853
		v95.182c0,12.594,6.193,19.408,18.375,19.408h0.826c8.672,0,14.66-3.924,19.822-8.672v7.432h20.646V47.226h-20.854V139.311z"/>
	<path fill="#FFFFFF" d="M445.293,84.35V65.189c0-12.388-6.402-19.201-17.963-19.201h-0.826c-8.879,0-15.072,3.923-21.061,9.498
		c-2.684-6.195-8.051-9.498-16.104-9.498h-0.826c-8.258,0-14.246,3.923-19.615,8.672v-7.434h-20.646v113.35h20.854V68.493
		c3.924-2.271,7.227-3.511,10.943-3.511c4.336,0,6.193,2.065,6.193,6.401v89.193h21.061V68.493c3.715-2.271,7.02-3.511,10.736-3.511
		c4.336,0,6.4,2.065,6.4,6.401v69.152c0.146-2.432,0.518-5.096,1.137-8.01C429.073,116.088,436.438,99.299,445.293,84.35z"/>
</g>
<g>
	<path d="M464.684,135.434c-5.523,8.812-12.92,16.449-19.391,19.154c-1.879,0.785-3.68,1.16-5.332,1.021
		c-7.99-0.709-6.037-15.449,1.066-32.852c1.393-0.908,2.82-1.908,4.266-2.98c14.936-11.088,31.912-30.557,36.932-50.471
		c2.133-8.348,1.066-14.918-4.084-19.535c-2.486-2.309-4.973-1.953-7.635,0.889c-8.479,8.81-17.422,20.538-25.213,33.69
		c-8.855,14.949-16.221,31.738-19.717,48.176c-0.619,2.914-0.99,5.578-1.137,8.01c-0.096,1.592-0.096,3.084,0,4.475
		c0.715,10.418,6.654,15.264,15.762,15.566c0.037,0.002,0.076,0.006,0.115,0.006c0.256,0.008,0.512-0.002,0.768-0.006
		c1.42-0.018,2.826-0.18,4.209-0.467c6.807-1.42,13.039-5.809,17.594-10.225C462.256,145.809,462.887,140.852,464.684,135.434z
		 M445.293,112.777c0.971-2.061,2.033-4.121,3.191-6.18c12.254-22.73,25.395-42.442,27.703-41.022
		c2.275,1.4-7.354,28.987-30.895,48.651c-0.357,0.299-0.707,0.602-1.07,0.895C444.565,114.34,444.924,113.559,445.293,112.777z"/>
	<path d="M504.422,88.662c2.309-2.486,3.551-7.281,1.242-11.898c-2.309-4.794-7.459-6.925-10.299-3.906
		c-2.842,3.02-3.73,8.346-0.889,13.141C497.141,90.615,502.114,91.148,504.422,88.662z"/>
	<path d="M499.979,145.488c0.213-3.721,0.795-8.609,1.662-14.121c-0.02,0.035-0.041,0.057-0.061,0.092
		c-5.328,12.254-15.094,23.975-23.086,24.328c-5.682,0.355-6.037-6.57-1.775-16.869c3.729-8.879,11.188-20.955,14.916-28.77
		c4.262-8.879,2.842-16.514,0.178-19.355c-1.42-1.598-2.664-1.064-4.262,1.064c-6.57,9.234-18.291,30.189-22.73,43.152
		c-0.049,0.143-0.09,0.283-0.137,0.424c-1.797,5.418-2.428,10.375-1.797,14.451c1.041,6.729,5.51,11.053,13.832,11.053
		c8.227,0,17.293-5.111,23.199-13.107C499.918,147.086,499.932,146.318,499.979,145.488z"/>
	<path d="M561.778,89.373c-0.355-2.309-1.42-2.664-3.373-0.711c-12.076,12.43-35.695,43.686-48.303,64.463
		c2.486-19.357,6.037-29.303,9.234-42.977c2.486-10.832,1.598-17.402-4.262-22.375c-1.422-1.242-2.842-0.531-3.553,1.422
		c-4.23,12.939-7.848,29.273-9.881,42.172c-0.867,5.512-1.449,10.4-1.662,14.121c-0.047,0.83-0.061,1.598-0.061,2.342
		c0.01,7.68,2.625,10.92,8.939,13.996c1.777,0.887,2.664-0.355,3.553-1.777c17.047-26.992,33.207-44.039,42.086-55.227
		C560.18,97.719,562.311,93.102,561.778,89.373z"/>
	<path d="M605.995,130.926c-0.711-1.598-2.131-1.598-3.02-0.178c-7.637,11.721-20.6,25.928-35.338,25.217
		c-9.412-0.531-13.674-11.721-7.992-28.057c12.432,10.121,24.328,5.504,33.031-5.15c7.457-9.057,8.879-19.889,5.682-24.15
		c-2.842-3.908-6.037-6.572-10.477-9.234c-8.879-5.15-26.992,4.084-38.535,26.992s-3.73,45.105,18.822,44.75
		c13.674-0.178,27.348-8.346,34.807-19.18C606.172,137.318,606.704,132.348,605.995,130.926z M562.665,120.982
		c8.346-16.871,23.086-27.525,26.814-24.508c2.486,1.955-1.42,11.189-7.104,18.646c-5.15,6.748-12.43,14.385-21.133,8.879
		C561.598,123.113,562.131,122.047,562.665,120.982z"/>
</g>
</svg>
