<?xml version="1.0" encoding="utf-8"?>
<!-- Generator: Adobe Illustrator 19.2.1, SVG Export Plug-In . SVG Version: 6.00 Build 0)  -->
<svg version="1.1" id="Layer_1" xmlns="http://www.w3.org/2000/svg" xmlns:xlink="http://www.w3.org/1999/xlink" x="0px" y="0px"
	 viewBox="0 0 100 100" style="enable-background:new 0 0 100 100;" xml:space="preserve">
<style type="text/css">
	.st0{fill:#21B24B;}
</style>
<path class="st0" d="M90.8,42.2l-22-22c-4.3-4.3-11.3-4.3-15.6,0s-4.3,11.3,0,15.6l3.2,3.2H17c-6.1,0-11,4.9-11,11s4.9,11,11,11
	h39.4l-3.2,3.2c-4.3,4.3-4.3,11.3,0,15.6c2.1,2.1,5,3.2,7.8,3.2s5.6-1.1,7.8-3.2l22-22C95.1,53.5,95.1,46.5,90.8,42.2z M86.9,53.9
	l-22,22c-1.1,1.1-2.5,1.6-3.9,1.6s-2.8-0.5-3.9-1.6c-2.1-2.1-2.1-5.6,0-7.8l12.6-12.6H17c-3,0-5.5-2.5-5.5-5.5s2.5-5.5,5.5-5.5h52.7
	L57.1,31.9c-2.1-2.1-2.1-5.6,0-7.8c2.1-2.1,5.6-2.1,7.8,0l22,22C89,48.3,89,51.7,86.9,53.9z"/>
</svg>
