<?xml version="1.0" encoding="utf-8"?>
<!-- Generator: Adobe Illustrator 16.0.4, SVG Export Plug-In . SVG Version: 6.00 Build 0)  -->
<!DOCTYPE svg PUBLIC "-//W3C//DTD SVG 1.1//EN" "http://www.w3.org/Graphics/SVG/1.1/DTD/svg11.dtd">
<svg version="1.1" id="Layer_1" xmlns="http://www.w3.org/2000/svg" xmlns:xlink="http://www.w3.org/1999/xlink" x="0px" y="0px"
	 width="48px" height="48px" viewBox="0 0 48 48" enable-background="new 0 0 48 48" xml:space="preserve">
<path fill="#FF0000" d="M23.992,3c8.284-0.001,15.001,6.713,15.002,14.997C38.997,29.997,24,45,24,45S8.997,30.003,8.995,18.003
	C8.993,9.718,15.708,3.001,23.992,3 M23.991,0C14.066,0.001,5.993,8.078,5.995,18.003c0.001,5.614,2.714,12.256,8.062,19.742
	c3.851,5.39,7.662,9.216,7.822,9.377C22.464,47.707,23.232,48,24,48s1.535-0.293,2.121-0.879c0.16-0.16,3.969-3.988,7.818-9.379
	c5.346-7.488,8.057-14.131,8.055-19.746C41.993,8.071,33.916-0.002,23.991,0L23.991,0z M23.993,10.5
	c4.136-0.001,7.501,3.363,7.501,7.499c0.001,4.136-3.362,7.5-7.498,7.501s-7.501-3.363-7.501-7.499
	C16.494,13.866,19.857,10.501,23.993,10.5 M23.993,9c-4.97,0.001-8.999,4.031-8.998,9.001c0.001,4.971,4.031,9,9.001,8.999
	s9-4.031,8.998-9.001C32.994,13.028,28.964,8.999,23.993,9L23.993,9z"/>
</svg>
