<?xml version="1.0" encoding="utf-8"?>
<!-- Generator: Adobe Illustrator 16.0.4, SVG Export Plug-In . SVG Version: 6.00 Build 0)  -->
<!DOCTYPE svg PUBLIC "-//W3C//DTD SVG 1.1//EN" "http://www.w3.org/Graphics/SVG/1.1/DTD/svg11.dtd">
<svg version="1.1" id="Layer_1" xmlns="http://www.w3.org/2000/svg" xmlns:xlink="http://www.w3.org/1999/xlink" x="0px" y="0px"
	 width="48px" height="48px" viewBox="0 0 48 48" enable-background="new 0 0 48 48" xml:space="preserve">
<path fill="#FF0000" d="M43.35,16.124C44.37,15.047,45,13.597,45,12c0-3.309-2.691-6-6-6s-6,2.691-6,6
	c0,1.597,0.63,3.048,1.651,4.124c-0.564,0.313-1.09,0.687-1.572,1.109c-0.994-1.708-2.456-3.111-4.209-4.033
	c1.608-1.377,2.63-3.421,2.63-5.7C31.5,3.364,28.136,0,24,0s-7.5,3.364-7.5,7.5c0,2.278,1.021,4.323,2.63,5.699
	c-1.753,0.922-3.214,2.325-4.209,4.033c-0.481-0.422-1.007-0.796-1.571-1.108C14.371,15.047,15,13.597,15,12c0-3.309-2.691-6-6-6
	s-6,2.691-6,6c0,1.597,0.63,3.048,1.651,4.124C1.88,17.66,0,20.614,0,24v6c0,1.657,1.343,3,3,3v7.5c0,1.657,1.343,3,3,3h6
	c1.657,0,3-1.343,3-3v-4.904C15.441,35.852,15.953,36,16.5,36v9c0,1.657,1.343,3,3,3h9c1.656,0,3-1.343,3-3v-9
	c0.547,0,1.059-0.148,1.5-0.404V40.5c0,1.657,1.344,3,3,3h6c1.656,0,3-1.343,3-3V33c1.656,0,3-1.343,3-3v-6
	C48,20.614,46.12,17.659,43.35,16.124z M9,9c1.657,0,3,1.343,3,3s-1.343,3-3,3s-3-1.343-3-3S7.343,9,9,9z M12,24.75V40.5H9.75V30
	c0-0.414-0.336-0.75-0.75-0.75S8.25,29.586,8.25,30v10.5H6V24.75C6,24.336,5.664,24,5.25,24S4.5,24.336,4.5,24.75V30H3v-6
	c0-3.313,2.686-6,6-6c1.922,0,3.632,0.905,4.73,2.311c-0.15,0.707-0.23,1.439-0.23,2.189V24h-0.75C12.336,24,12,24.336,12,24.75z
	 M39,9c1.656,0,3,1.343,3,3s-1.344,3-3,3c-1.657,0-3-1.343-3-3S37.343,9,39,9z M24,3c2.485,0,4.5,2.015,4.5,4.5S26.485,12,24,12
	s-4.5-2.015-4.5-4.5S21.515,3,24,3z M31.5,33H30v-9.75c0-0.414-0.336-0.75-0.75-0.75s-0.75,0.336-0.75,0.75V45h-3.75V33
	c0-0.414-0.336-0.75-0.75-0.75s-0.75,0.336-0.75,0.75v12H19.5V23.25c0-0.414-0.336-0.75-0.75-0.75S18,22.836,18,23.25V33h-1.5V22.5
	c0-4.142,3.358-7.5,7.5-7.5c4.143,0,7.5,3.358,7.5,7.5V33z M45,30h-1.5v-5.25c0-0.414-0.336-0.75-0.75-0.75S42,24.336,42,24.75V40.5
	h-2.25V30c0-0.414-0.336-0.75-0.75-0.75s-0.75,0.336-0.75,0.75v10.5H36V24.75c0-0.414-0.336-0.75-0.75-0.75H34.5v-1.5
	c0-0.75-0.079-1.483-0.23-2.189C35.368,18.905,37.078,18,39,18c3.313,0,6,2.687,6,6V30z"/>
</svg>
