<?xml version="1.0" encoding="utf-8"?>
<!-- Generator: Adobe Illustrator 19.2.1, SVG Export Plug-In . SVG Version: 6.00 Build 0)  -->
<svg version="1.1" id="Layer_1" xmlns="http://www.w3.org/2000/svg" xmlns:xlink="http://www.w3.org/1999/xlink" x="0px" y="0px"
	 viewBox="0 0 100 70" style="enable-background:new 0 0 100 70;" xml:space="preserve">
<style type="text/css">
	.st0{fill:#0282F9;}
</style>
<path class="st0" d="M59.8,53c-2-2-4.5-1.2-6.7-3.3c-1-1-1.4-2.2-1.4-3.8c0-2.2,1.2-4.6,2.9-6.3c1.7-1.7,4-2.9,6.3-2.9
	c1.5,0,2.8,0.5,3.8,1.4c2.3,2.3,1.3,4.7,3.3,6.7C74.1,51,82.6,36,82.6,35s-0.4-2.1-1.2-2.9c-6.1-6.1-13.1-7.3-7-13.4
	c2-2,4.4-1,6.7-3.3c1-1,1.4-2.3,1.4-3.8c0-2.3-1.2-4.6-2.9-6.3c-1.7-1.7-4.1-2.9-6.3-2.9c-1.6,0-2.8,0.5-3.8,1.4
	c-2.2,2.2-1.3,4.7-3.3,6.7c-6.1,6.1-7.3-0.8-13.4-7C52.1,2.8,51,2.4,50,2.4c-1,0-2.1,0.4-2.9,1.2L18.6,32.1
	c-0.8,0.8-1.2,1.9-1.2,2.9c0,1,0.4,2.1,1.2,2.9l28.5,28.5c0.8,0.8,1.8,1.2,2.9,1.2C51,67.6,66,59.1,59.8,53z"/>
</svg>
