<?xml version="1.0" encoding="utf-8"?>
<!-- Generator: Adobe Illustrator 19.2.1, SVG Export Plug-In . SVG Version: 6.00 Build 0)  -->
<svg version="1.1" id="Layer_1" xmlns="http://www.w3.org/2000/svg" xmlns:xlink="http://www.w3.org/1999/xlink" x="0px" y="0px"
	 viewBox="0 0 100 70" style="enable-background:new 0 0 100 70;" xml:space="preserve">
<style type="text/css">
	.st0{fill:#0282F9;}
</style>
<path class="st0" d="M78.6,14.6v48.9c0,2.3-1.8,4.1-4.1,4.1h-49c-2.3,0-4.1-1.8-4.1-4.1V14.6c0-2.3,1.8-4.1,4.1-4.1h4.1V6.4
	c0-2.3,1.8-4.1,4.1-4.1s4.1,1.8,4.1,4.1v4.1H46V6.4c0-2.3,1.8-4.1,4.1-4.1s4.1,1.8,4.1,4.1v4.1h8.2V6.4c0-2.3,1.8-4.1,4.1-4.1
	s4.1,1.8,4.1,4.1v4.1h4.1C76.7,10.5,78.6,12.3,78.6,14.6z M70.3,26.9H29.6V31h40.8L70.3,26.9L70.3,26.9z M70.3,39.1H29.6v4.1h40.8
	L70.3,39.1L70.3,39.1z M70.3,51.2H29.6v4.1h40.8L70.3,51.2L70.3,51.2z"/>
</svg>
