<?xml version="1.0" encoding="utf-8"?>
<!-- Generator: Adobe Illustrator 19.2.1, SVG Export Plug-In . SVG Version: 6.00 Build 0)  -->
<svg version="1.1" id="Layer_1" xmlns="http://www.w3.org/2000/svg" xmlns:xlink="http://www.w3.org/1999/xlink" x="0px" y="0px"
	 viewBox="0 0 100 70" style="enable-background:new 0 0 100 70;" xml:space="preserve">
<style type="text/css">
	.st0{fill:#0282F9;}
</style>
<g>
	<path class="st0" d="M31.3,66.3c0-2,0-3.9,0-5.9c0-0.6-0.2-0.9-0.6-1.2c-1.1-0.9-2.2-1.8-3.3-2.8c-0.5-0.5-1-0.6-1.6-0.5
		c-1.7,0.3-3.4,0.5-5.1,0.8c-0.2,0-0.3,0-0.5,0c-0.8-2.3-1.6-4.7-2.4-7c-0.1-0.2,0.2-0.6,0.4-0.7c1.6-1,3.1-1.8,4.7-2.8
		c0.3-0.2,0.5-0.6,0.5-0.9c0.3-1.5,0.5-3,0.9-4.4c0.1-0.6,0.1-1-0.3-1.4c-1.2-1.5-2.4-3-3.6-4.6c1.7-2,3.4-3.9,5.1-6
		c1.7,1,3.4,1.9,5.1,2.9c0.5,0.3,0.9,0.3,1.4,0c1.3-0.6,2.7-1,4.1-1.4c0.6-0.2,0.9-0.4,1.1-1c0.7-1.8,1.4-3.6,2.1-5.4
		c2.5,0.5,4.9,0.9,7.3,1.3c0.5,0.1,0.5,0.4,0.5,0.8c0,1.7,0,3.5,0,5.2c0,0.5,0.2,0.8,0.6,1.2c1.2,0.9,2.3,2,3.5,3
		c0.3,0.2,0.7,0.4,1,0.4c1.7-0.2,3.4-0.5,5.2-0.8c0.6-0.1,0.9,0,1.1,0.7c0.7,2.2,1.5,4.4,2.3,6.7c-1.3,0.8-2.6,1.7-4,2.3
		s-1.9,1.6-2,3.1c0,1.1-0.5,2.1-0.7,3.2c-0.1,0.4,0,0.8,0.2,1.1c1.2,1.6,2.4,3.1,3.7,4.7c-1.7,2-3.4,3.9-5.1,6
		c-1.6-0.9-3.1-1.7-4.6-2.6c-0.8-0.5-1.5-0.5-2.4-0.1c-1.2,0.6-2.5,0.9-3.7,1.2c-0.5,0.1-0.8,0.3-0.9,0.8c-0.6,1.7-1.3,3.3-2,4.9
		c-0.1,0.2-0.5,0.5-0.7,0.5C36.2,67.3,33.8,66.8,31.3,66.3z M32.6,45.9c0,3.6,2.9,6.6,6.6,6.6c3.6,0,6.6-3,6.6-6.6s-2.9-6.5-6.5-6.5
		C35.6,39.4,32.6,42.3,32.6,45.9z"/>
	<path class="st0" d="M49.3,16.6c0.6-1.8,1.2-3.5,1.8-5.2c0.2-0.5,0.4-0.5,0.8-0.4c1.2,0.2,2.5,0.3,3.7,0.6c0.5,0.1,0.8-0.1,1.1-0.4
		c0.8-0.8,1.7-1.4,2.5-2.2c0.2-0.2,0.5-0.6,0.5-0.9c0.1-1.3,0-2.6,0.1-3.9c0-0.2,0.2-0.6,0.4-0.7c1.8-0.4,3.6-0.7,5.5-1.1
		c0.5,1.4,1.1,2.7,1.6,4c0.2,0.5,0.5,0.7,1,0.9c1,0.3,2,0.7,3,1c0.3,0.1,0.8,0.1,1.1,0c1.3-0.7,2.5-1.4,3.9-2.2
		c1.3,1.5,2.6,3,3.9,4.6c-0.9,1.1-1.7,2.2-2.6,3.3c-0.4,0.5-0.5,0.9-0.3,1.5c0.3,0.9,0.5,1.9,0.6,2.9c0.1,0.6,0.3,0.9,0.8,1.2
		c1.2,0.7,2.4,1.4,3.6,2.1c-0.7,1.9-1.3,3.8-2,5.7c-1.4-0.2-2.8-0.4-4.2-0.6c-0.6-0.1-1,0-1.4,0.5c-0.7,0.7-1.5,1.4-2.3,2
		c-0.4,0.3-0.6,0.6-0.6,1.1c0,1.3,0,2.5,0,3.8c0,0.2-0.3,0.6-0.5,0.7c-1.8,0.4-3.6,0.7-5.4,1c-0.5-1.4-1.1-2.7-1.6-4.1
		c-0.2-0.5-0.5-0.7-0.9-0.8c-1-0.3-2-0.6-3-1.1c-0.4-0.2-0.7-0.2-1.2,0c-1.3,0.7-2.5,1.4-3.9,2.2c-1.3-1.5-2.6-3-3.9-4.6
		c0.9-1.1,1.7-2.2,2.6-3.2c0.4-0.5,0.5-1,0.3-1.6c-0.3-0.9-0.4-1.9-0.5-2.9c-0.1-0.6-0.3-0.8-0.7-1.1C51.8,18.1,50.6,17.3,49.3,16.6
		z M65.8,14.2c-2.8,0-5,2.2-5.1,5c0,2.7,2.3,5,5.1,5c2.8,0,5-2.3,5-5.1C70.8,16.4,68.5,14.1,65.8,14.2z"/>
</g>
</svg>
