<?xml version="1.0" encoding="utf-8"?>
<!-- Generator: Adobe Illustrator 19.2.1, SVG Export Plug-In . SVG Version: 6.00 Build 0)  -->
<svg version="1.1" id="Layer_1" xmlns="http://www.w3.org/2000/svg" xmlns:xlink="http://www.w3.org/1999/xlink" x="0px" y="0px"
	 viewBox="0 0 100 70" style="enable-background:new 0 0 100 70;" xml:space="preserve">
<style type="text/css">
	.st0{fill:#0282F9;}
</style>
<path class="st0" d="M47.1,50.1L34.9,37.9c-0.8-0.8-1.2-1.8-1.2-2.9s0.4-2.1,1.2-2.9c1.6-1.6,4.2-1.6,5.8,0l5.3,5.3V6.5
	c0-2.3,1.8-4.1,4.1-4.1s4.1,1.8,4.1,4.1v30.9l5.3-5.3c1.6-1.6,4.2-1.6,5.8,0c1.6,1.6,1.6,4.2,0,5.8L52.9,50.1
	C51.3,51.7,48.7,51.7,47.1,50.1z M17.4,55.4c0,6.7,5.5,12.2,12.2,12.2h40.8c6.7,0,12.2-5.5,12.2-12.2V14.6c0-2.3-1.8-4.1-4.1-4.1
	s-4.1,1.8-4.1,4.1v40.8c0,2.2-1.8,4.1-4.1,4.1H29.6c-2.2,0-4.1-1.8-4.1-4.1V14.6c0-2.3-1.8-4.1-4.1-4.1s-4.1,1.8-4.1,4.1V55.4
	L17.4,55.4z"/>
</svg>
