<?xml version="1.0" encoding="utf-8"?>
<!-- Generator: Adobe Illustrator 19.2.1, SVG Export Plug-In . SVG Version: 6.00 Build 0)  -->
<svg version="1.1" id="Layer_1" xmlns="http://www.w3.org/2000/svg" xmlns:xlink="http://www.w3.org/1999/xlink" x="0px" y="0px"
	 viewBox="0 0 100 70" style="enable-background:new 0 0 100 70;" xml:space="preserve">
<style type="text/css">
	.st0{fill:#0282F9;}
</style>
<g>
	<path class="st0" d="M56.8,14.6l-4.3,33.7h-5l-4.2-33.4c-0.2-1.4-0.3-2.5-0.4-3.2c-0.1-0.7-0.1-1.3-0.1-1.7c0-2.4,0.6-4.2,1.9-5.5
		s3-2,5.3-2s4,0.7,5.3,2c1.3,1.4,1.9,3.3,1.9,5.7c0,0.6,0,1.3-0.1,2C57,12.9,56.9,13.7,56.8,14.6z M50,53.2c2,0,3.6,0.7,5,2.1
		c1.4,1.4,2.1,3.1,2.1,5.2c0,2-0.7,3.6-2.1,5s-3.1,2-5,2s-3.6-0.7-5-2.1s-2.1-3-2.1-5s0.7-3.7,2.1-5.2C46.4,53.9,48,53.2,50,53.2z"
		/>
	<g>
		<g>
			<path class="st0" d="M44.2,18.5l1.1,8.7c1-0.2,2.1-0.4,3.1-0.4c2.4-0.2,4.8,0.1,7.2,0.4l1.1-8.8c-2-0.3-4-0.5-6.1-0.5
				C48.4,18,46.3,18.2,44.2,18.5z"/>
			<path class="st0" d="M81.8,32c-1.8-2-3.9-3.8-6-5.4c-4.4-3.5-9.7-5.9-15.3-7.2l-1.1,8.8c2.9,0.8,5.7,1.9,8.4,3.5
				c3,1.8,5.4,4.2,7.9,6.5c1.6,1.5,4.5,1.5,5.9-0.1C83.5,36,83.5,33.8,81.8,32z"/>
			<path class="st0" d="M40.3,19.3C37.6,20,35,21,32.4,22.1c-5.7,2.5-10.2,6.4-14.3,10.9c-1.8,2-1.3,4.2,0.4,6
				c1.5,1.6,4.7,1.4,6.3-0.3c4-4.3,8.5-8,14.2-10c0.8-0.3,1.6-0.5,2.4-0.7L40.3,19.3z"/>
		</g>
		<g>
			<path class="st0" d="M43.6,45.4l-1.2-9.8c-1.6,0.6-3.2,1.3-4.7,2.1c-3,1.6-5.2,4.1-7.5,6.5c-0.6,0.7-1,1.6-1.2,2.5
				c-0.4,2.2,0.8,4.1,2.8,5.1c1.7,0.8,3.9,0.4,5.4-1.1c0.9-0.9,1.8-1.8,2.7-2.7C41,47,42.3,46.1,43.6,45.4z"/>
			<path class="st0" d="M71.3,44.5c-0.5-0.9-1.2-1.6-1.9-2.4c-3-3.2-6.8-5.5-10.8-6.8l-1.2,9.8c1.5,0.7,3,1.6,4.3,2.9
				c1.2,1.2,2.3,2.6,4.1,3.1c1.9,0.6,3.8,0.2,5-1.4C72.1,47.9,72.2,46.4,71.3,44.5z"/>
		</g>
		<path class="st0" d="M42.6,60c-0.3-4.6,3.5-7.7,7.5-7.8c4.3,0,7.6,3.4,7.7,7.6c0.1,4.3-3.6,7.7-7.6,7.8
			C46.6,67.7,42.2,64.3,42.6,60z"/>
	</g>
</g>
</svg>
