<?xml version="1.0" encoding="utf-8"?>
<!-- Generator: Adobe Illustrator 19.2.1, SVG Export Plug-In . SVG Version: 6.00 Build 0)  -->
<svg version="1.1" id="Layer_1" xmlns="http://www.w3.org/2000/svg" xmlns:xlink="http://www.w3.org/1999/xlink" x="0px" y="0px"
	 viewBox="0 0 100 70" style="enable-background:new 0 0 100 70;" xml:space="preserve">
<style type="text/css">
	.st0{fill:#0282F9;}
</style>
<path class="st0" d="M41.2,67.6c-1.6,0-3-1-3.5-2.4L23.4,26.5L9.8,47.3c-1.1,1.7-3.4,2.2-5.2,1.1c-1.7-1.1-2.2-3.4-1.1-5.2l17.7-27
	c0.8-1.2,2.2-1.8,3.5-1.7c1.4,0.2,2.6,1.1,3.1,2.4l12.5,34.1L51.5,5.2c0.4-1.6,1.8-2.8,3.5-2.8c1.6,0.1,3.2,1,3.7,2.7l10.6,35.6
	l10.6-17.8c0.7-1.2,2.1-2,3.5-1.8c1.4,0.1,2.7,1.1,3.2,2.4l10.2,27.9c0.7,1.9-0.3,4.1-2.2,4.8c-1.9,0.7-4.1-0.3-4.8-2.2l-7.5-20.6
	L71.4,51.8c-0.8,1.3-2.2,2-3.7,1.8c-1.5-0.2-2.7-1.2-3.1-2.6l-9.1-30.5L44.8,64.8c-0.4,1.6-1.8,2.7-3.4,2.8
	C41.3,67.6,41.2,67.6,41.2,67.6z"/>
</svg>
