<?xml version="1.0" encoding="utf-8"?>
<!-- Generator: Adobe Illustrator 19.2.1, SVG Export Plug-In . SVG Version: 6.00 Build 0)  -->
<svg version="1.1" id="Layer_1" xmlns="http://www.w3.org/2000/svg" xmlns:xlink="http://www.w3.org/1999/xlink" x="0px" y="0px"
	 viewBox="0 0 100 70" style="enable-background:new 0 0 100 70;" xml:space="preserve">
<style type="text/css">
	.st0{fill:#0282F9;}
</style>
<g>
	<path class="st0" d="M55.7,46c-1.1-1.4-2.1-2.6-3.3-3.5c-3.2,3.3-7.6,5.2-12.3,5.2l0,0c-4.6,0-9-1.9-12.2-5.2
		c-0.3,0.2-0.5,0.5-0.8,0.7c-5.5,5.5-8.4,12.6-8.7,21.4c3.9,1.2,8,2,12.7,2.5c1.2,0.1,2.4,0.2,3.6,0.4l1.5,0.1l9-0.1
		c1.2-0.1,2.4-0.2,3.5-0.4c4.7-0.5,9-1.3,13.1-2.5c0-0.4-0.1-0.9-0.1-1.3c-0.1-0.8-0.1-1.5-0.2-2.3C60.9,55.3,58.9,50.2,55.7,46z"/>
	<path class="st0" d="M56.5,38.4c3.4,3,6.1,7,8.1,12.2c0.7-0.1,1.3-0.1,1.9-0.2c0.7-0.1,1.4-0.1,2.1-0.2c4.9-0.6,9.1-1.4,13-2.6V46
		c-0.1-0.4-0.1-0.6-0.2-0.9c-0.7-6.6-2.8-12-6.5-16.6c-0.8-1-1.7-1.9-2.5-2.7c-0.1-0.1-0.2-0.2-0.3-0.3c-2.1,2.1-4.5,3.6-7.2,4.5
		c-2.6,0.8-5.2,1-8,0.5c0.1,2.2-0.3,4.1-1,5.7C55.4,37.3,55.5,37.6,56.5,38.4z"/>
	<path class="st0" d="M62.8,2.8c-0.5-0.1-1-0.2-1.5-0.3l-0.6-0.1h-1.6c-0.3,0.1-0.4,0.1-0.6,0.1c-3.2,0.4-6,2-7.9,4.6
		S48,12.9,48.7,16c3.3,2.2,5.6,4.9,7.1,8.4c1.9,0.8,3.7,1,5.5,0.7c5.5-0.7,9.6-5.1,10-10.6C71.7,9.2,68.1,4.2,62.8,2.8z"/>
	<path class="st0" d="M40.2,19.2L40.2,19.2c-3.1,0-5.9,1.2-8.1,3.3c-2.2,2.2-3.4,5.1-3.4,8.1s1.2,5.9,3.3,8.1c2.2,2.2,5,3.4,8.1,3.4
		l0,0c6.3,0,11.4-5.1,11.5-11.3C51.7,24.5,46.6,19.3,40.2,19.2z"/>
</g>
</svg>
