<?xml version="1.0" encoding="utf-8"?>
<!-- Generator: Adobe Illustrator 19.2.1, SVG Export Plug-In . SVG Version: 6.00 Build 0)  -->
<svg version="1.1" id="Layer_1" xmlns="http://www.w3.org/2000/svg" xmlns:xlink="http://www.w3.org/1999/xlink" x="0px" y="0px"
	 viewBox="0 0 56.7 56.7" style="enable-background:new 0 0 56.7 56.7;" xml:space="preserve">
<style type="text/css">
	.st0{fill:#313A48;}
	.st1{fill:#FFFFFF;}
</style>
<circle class="st0" cx="28.3" cy="29.8" r="24.6"/>
<g>
	<path class="st1" d="M26.6,16.1V14h3.6v2.1c3.1,0.6,4.7,3,4.7,6.8v0.9h-4.2v-1.2c0-2-0.8-2.8-2.2-2.8c-1.4,0-2.2,0.8-2.2,2.8
		c0,2,0.8,3.4,3.8,5.8c3.6,2.9,4.8,5.1,4.8,8.3c0,3.8-1.6,6.2-4.8,6.9v2h-3.6v-2c-3.2-0.6-4.8-3.1-4.8-6.9v-1.9H26v2.2
		c0,2,0.9,2.7,2.3,2.7c1.4,0,2.3-0.7,2.3-2.7c0-2-0.8-3.4-3.8-5.8c-3.6-2.8-4.8-5.1-4.8-8.3C22,19.1,23.5,16.7,26.6,16.1z"/>
</g>
</svg>
