<?xml version="1.0" encoding="utf-8"?>
<!-- Generator: Adobe Illustrator 19.2.1, SVG Export Plug-In . SVG Version: 6.00 Build 0)  -->
<svg version="1.1" id="Layer_1" xmlns="http://www.w3.org/2000/svg" xmlns:xlink="http://www.w3.org/1999/xlink" x="0px" y="0px"
	 viewBox="0 0 56.7 56.7" style="enable-background:new 0 0 56.7 56.7;" xml:space="preserve">
<style type="text/css">
	.st0{fill:#313A48;}
	.st1{fill:#FFFFFF;}
</style>
<circle class="st0" cx="28.3" cy="29.8" r="24.6"/>
<path class="st1" d="M31.5,20.9v1.6c0,1.7-1.4,3.2-3.2,3.2c-1.7,0-3.2-1.4-3.2-3.2v-1.6c0-1.7,1.4-3.2,3.2-3.2
	C30.1,17.7,31.5,19.1,31.5,20.9z M32.9,29c-0.1-0.1-1.8-1.8-4.5-1.8s-4.4,1.7-4.5,1.8c-0.1,0.1-0.2,0.3-0.2,0.6v6.3
	c0,0.3,0.2,0.6,0.4,0.7l1.2,0.6l0.7,5.1c0.1,0.4,0.4,0.7,0.8,0.7h3.2c0.4,0,0.7-0.3,0.8-0.7l0.7-5.1l1.2-0.6
	c0.3-0.1,0.4-0.4,0.4-0.7v-6.3C33.1,29.3,33,29.1,32.9,29z M40.2,23.2v1.2c0,1.3-1.1,2.4-2.4,2.4c-1.3,0-2.4-1.1-2.4-2.4v-1.2
	c0-1.3,1.1-2.4,2.4-2.4C39.1,20.9,40.2,21.9,40.2,23.2z M37.8,28c-2.9,0-3.2,1.2-3.2,1.6v4.7c0,0.3,0.1,0.5,0.4,0.7l0.9,0.6l0.4,3.6
	c0,0.4,0.4,0.7,0.8,0.7h1.6c0.4,0,0.7-0.3,0.8-0.7l0.4-3.6l0.9-0.6c0.2-0.1,0.4-0.4,0.4-0.7v-4.7C41,29.2,40.8,28,37.8,28z
	 M21.2,23.2v1.2c0,1.3-1.1,2.4-2.4,2.4c-1.3,0-2.4-1.1-2.4-2.4v-1.2c0-1.3,1.1-2.4,2.4-2.4C20.2,20.9,21.2,21.9,21.2,23.2z M18.9,28
	c-2.9,0-3.2,1.2-3.2,1.6v4.7c0,0.3,0.1,0.5,0.4,0.7l0.9,0.6l0.4,3.6c0,0.4,0.4,0.7,0.8,0.7h1.6c0.4,0,0.7-0.3,0.8-0.7l0.4-3.6
	l0.9-0.6c0.2-0.1,0.4-0.4,0.4-0.7v-4.7C22,29.2,21.8,28,18.9,28z"/>
</svg>
