<?xml version="1.0" encoding="utf-8"?>
<!-- Generator: Adobe Illustrator 19.2.0, SVG Export Plug-In . SVG Version: 6.00 Build 0)  -->
<svg version="1.1" id="Layer_1" xmlns="http://www.w3.org/2000/svg" xmlns:xlink="http://www.w3.org/1999/xlink" x="0px" y="0px"
	 viewBox="0 0 316.5 316.5" style="enable-background:new 0 0 316.5 316.5;" xml:space="preserve">
<style type="text/css">
	.st0{fill:#81D4F7;}
	.st1{clip-path:url(#SVGID_2_);fill:#31B9E5;}
	.st2{fill:#FFFFFF;}
	.st3{fill:#FF0000;}
</style>
<circle class="st0" cx="158.2" cy="158.2" r="158.2"/>
<g>
	<defs>
		<circle id="SVGID_1_" cx="158.2" cy="158.2" r="158.2"/>
	</defs>
	<clipPath id="SVGID_2_">
		<use xlink:href="#SVGID_1_"  style="overflow:visible;"/>
	</clipPath>
	<path class="st1" d="M374,262.9L210.7,99.6l-11,11l-36.8-36.8l-47.5,47.5c-0.9-0.9-1.7-1.8-2.6-2.6c-0.4-0.4-0.7-0.8-0.9-1.2
		l-27.8,27.8l38.1,38.1l-38.1,38.1l163.3,163.3l14.4-14.4l2.4,2.4L374,262.9z"/>
</g>
<g id="XMLID_75_">
	<path class="st2" d="M84.1,99.6v45.7c0,0,31.6-15.2,31.6,15.2c0,30.5-31.6,15.2-31.6,15.2v45.7h126.4v-45.7
		c0,0,31.6,15.2,31.6-15.2s-31.6-15.2-31.6-15.2V99.6h-47.4c0,0,15.8-30.5-15.8-30.5c-31.6,0-15.8,30.5-15.8,30.5H84.1z"/>
</g>
<polygon class="st3" points="171.9,170.4 147.9,143.5 124.7,170.4 "/>
</svg>
