<?xml version="1.0" encoding="utf-8"?>
<!-- Generator: Adobe Illustrator 19.2.0, SVG Export Plug-In . SVG Version: 6.00 Build 0)  -->
<svg version="1.1" id="Layer_1" xmlns="http://www.w3.org/2000/svg" xmlns:xlink="http://www.w3.org/1999/xlink" x="0px" y="0px"
	 viewBox="0 0 144 144" style="enable-background:new 0 0 144 144;" xml:space="preserve">
<style type="text/css">
	.st0{fill:none;stroke:#FF0000;stroke-width:6;stroke-linecap:round;stroke-miterlimit:10;}
</style>
<g>
	<path class="st0" d="M35.5,99.1c-9.6,0-17.4-7.8-17.4-17.4s7.8-17.4,17.4-17.4H39v34.8C39,99.1,35.5,99.1,35.5,99.1z"/>
	<path class="st0" d="M108.7,64.3c9.6,0,17.4,7.8,17.4,17.4s-7.8,17.4-17.4,17.4h-3.5V64.3H108.7z"/>
	<path class="st0" d="M39,69.5V53.8c0,0,0-27.9,33.1-27.9s33.1,27.9,33.1,27.9v10.5"/>
	<path class="st0" d="M105.2,99.1v7.8c0,0.5-0.3,1-0.9,1.2L79.2,118c-0.2,0-0.3,0.2-0.5,0.2H66.4c-0.7,0-1.4-0.7-1.4-1.4v-4.2
		c0-0.7,0.7-1.4,1.4-1.4h11.1c0.7,0,1.4,0.7,1.4,1.4v3.8"/>
</g>
</svg>
