<?xml version="1.0" encoding="utf-8"?>
<!-- Generator: Adobe Illustrator 16.0.4, SVG Export Plug-In . SVG Version: 6.00 Build 0)  -->
<!DOCTYPE svg PUBLIC "-//W3C//DTD SVG 1.1//EN" "http://www.w3.org/Graphics/SVG/1.1/DTD/svg11.dtd">
<svg version="1.1" id="Layer_1" xmlns="http://www.w3.org/2000/svg" xmlns:xlink="http://www.w3.org/1999/xlink" x="0px" y="0px"
	 width="256px" height="256px" viewBox="0 0 256 256" enable-background="new 0 0 256 256" xml:space="preserve">
<g>
	<path fill="#EFEFEF" d="M196.525,63.932c-3.842-2.458-7.793-4.74-11.846-6.812c-20.231-10.335-42.08-15.577-64.941-15.577
		c-22.858,0-44.708,5.242-64.938,15.577C35.52,66.97,18.437,81.35,5.403,98.706c-4.862,6.474-3.556,15.665,2.918,20.526
		c2.638,1.982,5.729,2.939,8.792,2.939c4.454,0,8.851-2.021,11.734-5.857C50.54,87.429,83.671,70.861,119.74,70.861
		c17.212,0,33.75,3.781,48.699,10.863C175.564,73.102,185.346,66.754,196.525,63.932z"/>
	<path fill="#EFEFEF" d="M119.74,151.49c-16.05,0-31.393,7.668-41.04,20.515c-4.863,6.47-3.554,15.663,2.921,20.524
		c6.475,4.863,15.66,3.554,20.521-2.918c4.203-5.592,10.616-8.801,17.599-8.801c6.981,0,13.396,3.209,17.6,8.801
		c2.88,3.834,7.278,5.857,11.731,5.857c3.062,0,6.15-0.955,8.791-2.938c6.473-4.861,7.781-14.055,2.921-20.526
		C151.132,159.158,135.791,151.49,119.74,151.49z"/>
	<path fill="#EFEFEF" d="M157.504,104.071c-11.74-4.934-24.521-7.555-37.764-7.555c-30.833,0-59.149,14.157-77.687,38.839
		c-4.863,6.471-3.557,15.664,2.918,20.524c2.637,1.981,5.726,2.938,8.791,2.938c4.451,0,8.852-2.023,11.733-5.856
		c12.948-17.242,32.721-27.127,54.244-27.127c15.943,0,30.922,5.431,42.881,15.25c-4.076-7.55-6.396-16.184-6.396-25.365
		C156.227,111.721,156.668,107.823,157.504,104.071z"/>
	<path fill="#EFEFEF" d="M212.049,74.442c-22.326,0-40.423,18.097-40.423,40.419c0,22.323,18.097,40.417,40.423,40.417
		c22.318,0,40.415-18.094,40.415-40.417C252.464,92.539,234.367,74.442,212.049,74.442z M212.049,145.176
		c-16.718,0-30.314-13.604-30.314-30.314c0-6.54,2.078-12.598,5.613-17.555l42.256,42.257
		C224.645,143.094,218.585,145.176,212.049,145.176z M236.744,132.416l-42.258-42.257c4.959-3.532,11.02-5.613,17.562-5.613
		c16.711,0,30.308,13.6,30.308,30.315C242.355,121.397,240.279,127.459,236.744,132.416z"/>
</g>
</svg>
