<?xml version="1.0" encoding="utf-8"?>
<!-- Generator: Adobe Illustrator 16.0.4, SVG Export Plug-In . SVG Version: 6.00 Build 0)  -->
<!DOCTYPE svg PUBLIC "-//W3C//DTD SVG 1.1//EN" "http://www.w3.org/Graphics/SVG/1.1/DTD/svg11.dtd">
<svg version="1.1" id="Layer_1" xmlns="http://www.w3.org/2000/svg" xmlns:xlink="http://www.w3.org/1999/xlink" x="0px" y="0px"
	 width="256px" height="256px" viewBox="0 0 256 256" enable-background="new 0 0 256 256" xml:space="preserve">
<g>
	<path fill="#EFEFEF" d="M117.426,198.693c-11.859,11.861-27.625,18.391-44.396,18.391c-16.768,0-32.535-6.529-44.394-18.391
		c-11.859-11.856-18.387-27.625-18.387-44.395c0-16.768,6.528-32.538,18.387-44.394c11.858-11.858,27.625-18.39,44.394-18.39
		c16.771,0,32.537,6.531,44.396,18.39c0.557,0.558,1.101,1.127,1.634,1.704c2.529-1.742,5.272-3.194,8.176-4.322
		C114.081,92.132,94.675,82.549,73.03,82.549c-39.627,0-71.751,32.122-71.751,71.751c0,39.63,32.125,71.752,71.751,71.752
		c28.91,0,53.823-17.102,65.187-41.737c-3.132-0.27-6.16-0.896-9.043-1.844C126.195,188.391,122.251,193.868,117.426,198.693z"/>
	<path fill="#EFEFEF" d="M63.457,196H82c3.581,0,5-4.309,5-8.248v-32.371c6-4.744,9.831-11.771,9.831-19.021
		c0-13.599-10.675-24.661-24.192-24.661c-13.702,0-25.636,11.062-25.636,24.661c0,7.533,2.997,14.396,7.997,19.021v32.371
		C55,191.561,59.836,196,63.457,196z M72.92,120.668c8.563,0,15.53,7.04,15.53,15.691c0,5.736-3.641,10.807-8.636,13.572L78,150.57
		v1.324V187H64v-35.105v-1.324l-0.226-0.637c-4.823-2.67-7.126-7.617-7.126-13.574C56.648,127.708,64.205,120.668,72.92,120.668z"/>
	<path fill="#EFEFEF" d="M178.121,40.437c-10.887,10.614-14.176,26.28-10.182,40.59l-31.588,30.816l-27.374,26.696
		c-2.977,2.906-4.057,7.24-2.79,11.203l3.734,11.689c0.532,1.658,1.431,3.127,2.597,4.317c1.986,2.041,4.742,3.278,7.721,3.312
		l15.521,0.196c4.727,0.058,8.954-2.911,10.508-7.376l1.43-4.12c5.17-0.005,9.646-3.62,10.722-8.692l2.25-10.547l5.552,0.062
		l0.971,0.012c4.728,0.062,8.961-2.91,10.507-7.376l2.774-7.981l2.437,0.03c2.909,0.036,5.72-1.088,7.8-3.116l7.893-7.695
		c14.205,4.354,29.948,1.453,40.834-9.161c16.246-15.849,15.711-42.841-1.195-60.172C221.34,25.794,194.366,24.586,178.121,40.437z
		 M231.77,95.438c-9.41,9.176-23.633,10.594-35.703,4.158l-13.021,12.698l-7.761-0.095l-3.929,3.829l-4.022,11.595l-6.265-0.074
		l-9.26-0.118l-4.123,19.356l-7.76-0.1l-4.023,11.598l-15.525-0.2l-3.734-11.688l31.348-30.576l32.748-31.939
		c-6.136-12.226-4.361-26.413,5.044-35.59c11.933-11.639,31.906-10.522,44.605,2.499C243.087,63.808,243.703,83.795,231.77,95.438z"
		/>
	<path fill="#EFEFEF" d="M207.005,58.261c-4.339,4.231-4.428,11.182-0.192,15.521c4.233,4.339,11.182,4.425,15.524,0.193
		c4.34-4.231,4.42-11.183,0.192-15.521C218.295,54.114,211.35,54.025,207.005,58.261z M218.501,70.046
		c-2.165,2.113-5.649,2.069-7.76-0.097c-2.111-2.165-2.067-5.648,0.1-7.762c2.166-2.111,5.646-2.07,7.761,0.099
		C220.711,64.45,220.668,67.932,218.501,70.046z"/>
</g>
</svg>
