<?xml version="1.0" encoding="utf-8"?>
<!-- Generator: Adobe Illustrator 16.0.4, SVG Export Plug-In . SVG Version: 6.00 Build 0)  -->
<!DOCTYPE svg PUBLIC "-//W3C//DTD SVG 1.1//EN" "http://www.w3.org/Graphics/SVG/1.1/DTD/svg11.dtd">
<svg version="1.1" id="Layer_1" xmlns="http://www.w3.org/2000/svg" xmlns:xlink="http://www.w3.org/1999/xlink" x="0px" y="0px"
	 width="256px" height="256px" viewBox="0 0 256 256" enable-background="new 0 0 256 256" xml:space="preserve">
<path fill="#EFEFEF" d="M224,48c8.8,0,16,7.2,16,16v128c0,8.8-7.2,16-16,16H32c-8.801,0-16-7.2-16-16V64c0-8.8,7.199-16,16-16H224
	 M224,32H32C14.355,32,0,46.355,0,64v128c0,17.645,14.355,32,32,32h192c17.645,0,32-14.355,32-32V64C256,46.355,241.645,32,224,32
	L224,32z M216,72v24H40V72H216 M216,64H40c-4.418,0-8,3.582-8,8v24c0,4.418,3.582,8,8,8h176c4.418,0,8-3.582,8-8V72
	C224,67.582,220.418,64,216,64L216,64z M72,128v56H40v-56H72 M72,120H40c-4.418,0-8,3.582-8,8v56c0,4.418,3.582,8,8,8h32
	c4.418,0,8-3.582,8-8v-56C80,123.582,76.418,120,72,120L72,120z M216,128v56H104v-56H216 M216,120H104c-4.418,0-8,3.582-8,8v56
	c0,4.418,3.582,8,8,8h112c4.418,0,8-3.582,8-8v-56C224,123.582,220.418,120,216,120L216,120z"/>
</svg>
